<?xml version="1" standalone="no"?>
<!DOCTYPE svg PUBLIC "-//W3C//DTD SVG 1//EN" "http://www.w3.org/Graphics/SVG/1/DTD/svg11.dtd" >
<!--
2013-9-30: Created.
-->
<svg>
<metadata>
Created by iconfont
</metadata>
<defs>

<font id="iconfont" horiz-adv-x="1024" >
  <font-face
    font-family="iconfont"
    font-weight="500"
    font-stretch="normal"
    units-per-em="1024"
    ascent="896"
    descent="-128"
  />
    <missing-glyph />
    
    <glyph glyph-name="Apple_Watch" unicode="&#60271;" d="M773 423h-20c-14 0-25 11-25 25v61c0 14 11 25 25 25h20c14 0 25-11 25-25v-61c0-14-11-25-25-25zM775 423h-24c-13 0-24 10-24 24v49c0 13 10 24 24 24h24c13 0 24-10 24-24v-49c0-13-11-24-24-24zM670 666c-27 55-18 86-28 145-11 64-21 77-64 78-37 0-59 0-96-0h-0C443 889 441 890 403 890c-42 0-52-14-64-78-10-59-1-90-28-145h359zM670 666c-25 49-17 77-27 130-10 56-20 69-61 69-36 0-57 0-93-0h-0c-36 0-37 0-74 0-41 0-51-12-61-69-9-52-1-80-27-130h348zM670 99c-27-55-18-86-28-145-11-64-21-77-64-78-37 0-59 0-96 0h-0c-37 0-39-0-76-0-42 0-52 14-64 78-10 59-1 90-28 145h359zM670 99c-27-55-18-86-28-145-11-64-21-77-64-78-37 0-59 0-96 0h-0c-37 0-39-0-76-0-42 0-52 14-64 78-10 59-1 90-28 145h359zM754 403V520 576c0 54-36 92-91 93-114 0-228 1-342 0C263 668 227 630 227 573v-136c0-81 0-161 0-242 0-17 4-36 12-51 18-33 51-44 88-44 110 0 221-0 332 0 58 0 93 39 93 97V300 403h-0zM754 520v-279c0-58-35-96-93-97-110-1-221-0-332 0-36 0-68 11-88 44C231 203 227 223 227 240 226 300 226 359 226 418v10V572C226 628 263 667 320 667c114 1 228 0 342 0 54-0 91-38 91-93 0-17 0-35 0-54zM494 381m-61 0a61 61 0 1 1 122 0 61 61 0 1 1-122 0ZM422 509m-40 0a40 40 0 1 1 81 0 40 40 0 1 1-81 0ZM579 508m-40-2a40 40 0 1 1 80 5 40 40 0 1 1-80-5ZM422 256m-40 0a40 40 0 1 1 81 0 40 40 0 1 1-81 0ZM579 255m-40-2a40 40 0 1 1 80 5 40 40 0 1 1-80-5ZM362 381m-40 0a40 40 0 1 1 81 0 40 40 0 1 1-81 0ZM630 380m-40-2a40 40 0 1 1 80 5 40 40 0 1 1-80-5Z"  horiz-adv-x="1024" />

    
    <glyph glyph-name="Phone_1_" unicode="&#60527;" d="M362 294c0-30-24-55-55-55-14 0-28 6-38 15-10 9-16 24-16 39 0 30 24 55 55 55 28 0 51-21 55-48 0-2 0-4 0-7zM766 294c0-30-24-55-55-55-14 0-28 6-38 15-10 9-16 24-16 39 0 30 24 55 55 55 28 0 51-21 55-48 0-2 0-4 0-7zM564 113c0-30-24-55-55-55-14 0-28 6-38 15-10 9-16 24-16 39 0 30 24 55 55 55 28 0 50-21 54-48 1-2 1-4 1-7zM766-67c0-30-24-55-55-55-14 0-28 6-38 15-10 9-16 24-16 39 0 30 24 55 55 55 28 0 51-21 55-48 0-1 0-4 0-7zM508 294m-55 0a55 55 0 1 1 110 0 55 55 0 1 1-110 0ZM307 113m-55 0a55 55 0 1 1 110 0 55 55 0 1 1-110 0ZM710 113m-55 0a55 55 0 1 1 110 0 55 55 0 1 1-110 0ZM307-67m-55 0a55 55 0 1 1 110 0 55 55 0 1 1-110 0ZM508-67m-55 0a55 55 0 1 1 110 0 55 55 0 1 1-110 0ZM25 525c-1 6-2 12-3 19 0 2 0 4-0 7-5 54 3 112 33 160 33 53 92 84 149 109C375 898 550 912 724 862c31-9 61-19 92-32 35-14 69-33 100-55l16-12c45-34 67-82 71-138 1-19 0-39 0-59 0-7-0-14-2-21-9-43-45-77-91-81-43-3-87-3-130-1-45 2-81 34-91 77-1 6-2 12-2 19-1 15-0 31-0 47-0 34-16 52-50 58-82 14-165 11-247-3-30-4-46-24-46-55v-47c0-8-1-16-3-24-11-43-48-76-94-79-40-2-80-2-120-1-48 0-86 31-98 74zM21 552c3 4-1 31-1 38 0 14 1 28 3 43C39 730 119 783 204 821 376 898 550 911 725 861c31-9 61-19 92-32 35-14 69-33 100-55C415 913 167 739 21 552zM689 535l314 4c-9-43-45-77-91-81-43-3-87-3-130-1-45 2-81 34-91 77zM25 525l312 4C326 486 290 453 243 451c-40-2-80-2-120-1C75 451 37 482 25 525z"  horiz-adv-x="1024" />

    
    <glyph glyph-name="Call_Canceled" unicode="&#60272;" d="M748 635c-17 17-46 17-64 0L26-21c-17-17-17-46 0-64 17-17 46-17 64 0L748 570c17 17 17 46 0 64zM402 385L267 250l-56-56c-40 49-74 103-104 162C89 392 73 428 60 466c-16 44-27 89-33 136-0 8-2 17-3 25-6 69 17 128 64 179 16 17 34 33 52 49 7 6 14 12 22 16 47 28 107 24 148-14 39-36 76-75 109-116 36-43 36-101 6-146-4-6-8-12-14-18-12-14-28-27-41-40-30-28-34-58-11-93 12-20 26-40 41-58zM988 8c-4-6-8-12-14-19-1-2-4-4-5-6-22-25-47-49-76-68-31-20-68-32-106-37-40-4-78 4-116 14-32 8-63 19-93 32-103 44-194 101-271 172l62 62 128 128c23-21 48-41 73-61 30-23 60-20 88 4 14 12 28 26 42 39 7 6 15 12 24 16 48 26 108 20 148-19 35-34 68-69 101-106 40-44 44-104 14-150zM25 602c76-148 157-263 240-352l-56-56c-40 49-74 103-104 162-17 35-33 71-47 109-15 44-27 89-33 136zM968-16c-2 0-7-8-8-9-3-4-7-7-11-11-7-7-14-14-21-20-14-13-30-25-48-35-36-20-80-31-122-29-18 0-36 4-53 7-42 8-83 20-123 37-0 0-2 0-3 1-103 44-194 101-271 172l62 62c204-164 416-190 600-174zM428 596L163 873c47 28 107 24 148-14C351 823 388 784 421 743c35-44 36-102 6-147zM988 8L724 284c48 26 108 20 148-19 35-34 68-69 101-106 39-44 43-104 13-150z"  horiz-adv-x="1024" />

    
    <glyph glyph-name="Sync" unicode="&#60528;" d="M1168 457c-6 0-12 4-14 10-0 2-1 5-1 8-1 7 2 15 9 17 7 1 15-2 17-9 0-2 1-6 2-9 1-7-2-15-10-17h-2z m-24 75c-5 0-11 3-13 8-0 2-1 5-3 8-2 7 0 15 7 19 7 2 15 0 19-7 0-2 2-5 3-9 2-7-0-15-7-19h-5z m-36 69c-4 0-9 1-12 6-1 2-3 4-4 7-4 6-2 15 3 20s15 2 20-3l5-8c4-6 2-15-3-20-2-0-5-1-8-1z m-50 60c-3 0-6 0-9 3-1 1-4 3-6 5-5 4-6 14-0 20 4 5 14 6 20 0 2-1 4-4 7-6 5-5 5-14 0-20-3-1-7-3-11-3z m-64 46c-1 0-4 0-6 1-2 1-5 2-8 3-6 3-9 12-6 19 3 6 12 9 19 6 2-1 5-2 8-4 6-3 9-12 5-19-1-4-6-7-11-7z m-73 28c-0 0-2 0-3 0-2 0-5 1-8 1-7 1-12 9-10 17 1 7 9 12 17 10 2-0 6-1 9-2 7-1 12-9 9-17-1-5-7-10-13-10z m-78 13h-0c-2 0-5 0-9 0-7 0-13 7-13 15 0 7 7 14 15 13 2 0 6-0 9-0 7-0 13-7 13-15-0-7-6-13-14-13z m-89 1c-7 0-14 5-14 13 0 7 5 14 13 15h9c7 0 14-5 15-13 0-7-5-14-13-15h-10c0 0 0 0 0 0zM622 137h-10c-7 0-14 6-13 15 0 7 7 14 15 13h9c7 0 14-6 13-15 0-6-6-13-14-13z m-78 8h-2c-2 0-6 0-9 1-7 1-12 9-10 17 1 7 9 12 17 10 2-0 5-0 8-1 7-1 12-8 11-17-1-5-7-10-14-10zM468 170c-1 0-3 0-5 0-2 1-5 2-9 4-6 3-9 12-5 19s12 9 19 5c2-0 5-2 7-3 7-3 10-11 6-19-1-4-7-7-12-7z m-64 44c-3 0-7 1-10 4-1 2-4 4-6 7-4 5-4 15 0 20s15 4 20-0c1-1 3-4 5-6 5-5 5-14 0-20-2-2-6-4-9-4z m-43 66c-5 0-10 2-13 8-0 2-2 5-3 9-2 7 0 15 8 18 7 2 15-0 18-8 0-2 1-5 3-8 2-7 0-15-7-19h-5z m-20 75c-6 0-13 4-14 12-0 2-0 6-0 9-0 7 4 15 12 16 7 0 15-4 16-12 0-2 0-5 0-9 0-7-3-15-12-16-0 0-1 0-1 0z m-5 79c-7 0-14 6-14 14v9c0 7 6 14 14 14s14-6 14-14v-9c0-7-5-14-14-14zM1097 643m-35 0a35 35 0 1 1 71 0 35 35 0 1 1-71 0ZM1097 592C1069 592 1046 615 1046 643S1069 694 1097 694s50-22 50-50-22-50-50-50z m0 71c-11 0-20-9-20-20 0-11 9-20 20-20 11 0 20 9 20 20 0 11-8 20-20 20zM349 331m-35 0a35 35 0 1 1 71 0 35 35 0 1 1-71 0ZM349 279C322 279 299 302 299 330S322 381 349 381s50-22 50-50S377 279 349 279z m0 72c-11 0-20-9-20-20 0-11 9-20 20-20s20 9 20 20-8 20-20 20zM1477-67V-88c0-18-15-34-36-34H703c-19 0-36 15-36 34v20h333c2-7 10-13 19-13h104c8 0 16 5 19 13h333zM1477-67c0-18-16-34-36-34H703c-19 0-36 15-36 34h333c2-7 10-13 19-13h104c8 0 16 5 19 13h333zM1435-67H708V371c0 26 21 48 48 48h629c26 0 48-21 48-48v-438zM1254-69H743V381h655v-450h-68M743 381h655M119 726C56 726 5 676 5 613c0-27 9-52 25-72 20-24 51-40 87-40h482c14 0 27 2 40 7 42 15 72 57 72 105 0 53-36 98-86 110v6C628 818 557 889 470 889c-56 0-105-29-133-73-21 13-48 22-77 22-67-0-124-47-140-111z"  horiz-adv-x="1481" />

    
    <glyph glyph-name="Calendar" unicode="&#60273;" d="M911-128H48c-23 0-43 19-43 43V596c0 23 19 43 43 43h862c23 0 43-19 43-43v-681c0-23-19-43-43-43zM954 597v-681c0-23-19-43-43-43H48c-23 0-43 19-43 43V597c0 23 19 43 43 43h862c23-0 43-19 43-43zM951 595v-242c-18-4-39-7-59-7-109 0-202 69-238 166-9 27-15 56-15 86 0 13 0 26 3 39h266c24 0 43-19 43-43zM954 597v-112H5V597c0 23 19 43 43 43h862c23-0 43-19 43-43zM954 597v-112H665c-12 34-19 71-19 110 0 15 0 30 3 43h261c23 0 43-18 43-42zM136 351v12c0 5 4 11 11 11h58c5 0 11-4 11-11v-58c0-5-4-11-11-11h-59c-5 0-10 4-10 10v23M360 293h-58c-5 0-11 4-11 11v58c0 5 4 11 11 11h58c5 0 11-4 11-11v-58c-0-6-5-11-11-11zM515 293h-58c-5 0-11 4-11 11v58c0 5 4 11 11 11h58c5 0 11-4 11-11v-58c-0-6-5-11-11-11zM669 293h-58c-5 0-11 4-11 11v58c0 5 4 11 11 11h58c5 0 11-4 11-11v-58c-0-6-5-11-11-11zM824 293h-58c-5 0-11 4-11 11v58c0 5 4 11 11 11h58c5 0 11-4 11-11v-58c-0-6-5-11-11-11zM206 140h-58c-5 0-11 4-11 11v58c0 5 4 11 11 11h58c5 0 11-4 11-11v-58c-0-6-5-11-11-11zM360 140h-58c-5 0-11 4-11 11v58c0 5 4 11 11 11h58c5 0 11-4 11-11v-58c-0-6-5-11-11-11zM525 166v-15c0-5-4-11-11-11h-58c-5 0-11 4-11 11v58c0 5 4 11 11 11h59c5 0 10-4 10-10v-43zM669 140h-58c-5 0-11 4-11 11v58c0 5 4 11 11 11h58c5 0 11-4 11-11v-58c-0-6-5-11-11-11zM824 140h-58c-5 0-11 4-11 11v58c0 5 4 11 11 11h58c5 0 11-4 11-11v-58c-0-6-5-11-11-11zM206-12h-58c-5 0-11 4-11 11v58c0 5 4 11 11 11h58c5 0 11-4 11-11v-58c-0-6-5-11-11-11zM360-12h-58c-5 0-11 4-11 11v58c0 5 4 11 11 11h58c5 0 11-4 11-11v-58c-0-6-5-11-11-11zM515-12h-58c-5 0-11 4-11 11v58c0 5 4 11 11 11h58c5 0 11-4 11-11v-58c-0-6-5-11-11-11zM599 57v-59c0-5 4-11 11-11h58c5 0 11 4 11 11v59c0 5-4 9-9 9h-60c-6 0-11-4-11-9zM788 849c39 26 87 41 138 41 139 0 253-113 253-253S1067 384 927 384 673 497 673 637c0 88 45 166 114 212M1076 560l-111 63c0 2 0 4 0 6 0 13-7 26-17 34l16 81c2 11-4 21-16 23-11 2-21-4-23-16L907 668c-15-6-26-21-26-39 0-23 18-42 42-42 5 0 11 0 16 3l116-66c3-1 6-2 9-2 7 0 13 4 17 10 5 10 2 22-7 28z"  horiz-adv-x="1186" />

    
    <glyph glyph-name="To_Do" unicode="&#60529;" d="M254 831h598c14 0 26-12 26-26v-905c0-14-12-26-26-26H167c-14 0-26 12-26 26V804c0 14 12 26 26 26h39M206 831h10M841 744v-813c0-12-9-21-21-21H207c-12 0-21 9-21 21V744c0 12 9 21 21 21h612c11 0 21-9 21-21zM721 837c-7 15-22 26-40 26H549C546 881 531 896 512 896c-19 0-34-13-37-31H341c-12 0-23-4-31-13-4-4-7-8-9-13-2-5-3-11-3-17 0-24 19-44 44-44H681c12 0 23 4 31 13 7 7 13 19 13 31-1 4-2 11-4 16zM511 871c7 0 14-6 14-14s-6-14-14-14-14 6-14 14 6 14 14 14zM740 573h-50c-7 0-14 6-14 14s6 14 14 14h50c7 0 14-6 14-14s-6-14-14-14zM653 573H540c-7 0-14 6-14 14s6 14 14 14h113c7 0 14-6 14-14s-7-14-14-14zM500 573h-37c-7 0-14 6-14 14s6 14 14 14h37c7 0 14-6 14-14s-6-14-14-14zM596 509h-20c-7 0-14 6-14 14s6 14 14 14H596c7 0 14-6 14-14s-6-14-14-14zM531 509h-67c-7 0-14 6-14 14s6 14 14 14h67c7 0 14-6 14-14s-6-14-14-14zM340 559m-68 0a68 68 0 1 1 137 0 68 68 0 1 1-137 0ZM327 530c-2 0-5 0-7 2l-20 20c-4 4-4 10 0 14 4 4 10 4 14 0l13-13 33 33c4 4 10 4 14 0 4-4 4-10 0-14l-41-41c-1-1-4-2-7-2zM740 343h-50c-7 0-14 6-14 14s6 14 14 14h50c7 0 14-6 14-14s-6-14-14-14zM653 343H540c-7 0-14 6-14 14s6 14 14 14h113c7 0 14-6 14-14s-7-14-14-14zM500 343h-37c-7 0-14 6-14 14s6 14 14 14h37c7 0 14-6 14-14s-6-14-14-14zM596 280h-20c-7 0-14 6-14 14s6 14 14 14H596c7 0 14-6 14-14s-6-14-14-14zM531 280h-67c-7 0-14 6-14 14s6 14 14 14h67c7 0 14-6 14-14s-6-14-14-14zM339 331m-69 0a69 69 0 1 1 138 0 69 69 0 1 1-138 0ZM327 300c-2 0-5 1-7 2L299 323c-4 4-4 10 0 14 4 4 10 4 14 0l13-13L361 359c4 4 10 4 14 0 4-4 4-10 0-14L334 302c-1-1-4-2-7-2zM653 114H540c-7 0-14 6-14 14s6 14 14 14h113c7 0 14-6 14-14s-7-14-14-14zM500 114h-37c-7 0-14 6-14 14s6 14 14 14h37c7 0 14-6 14-14s-6-14-14-14zM596 50h-20c-7 0-14 6-14 14s6 14 14 14H596c7 0 14-6 14-14s-6-14-14-14zM531 50h-67c-7 0-14 6-14 14s6 14 14 14h67c7 0 14-6 14-14s-6-14-14-14zM340 100m-69 0a69 69 0 1 1 138 0 69 69 0 1 1-138 0ZM327 71c-2 0-5 1-7 2l-20 20c-4 4-4 10 0 14 4 4 10 4 14 0l13-13 33 33c4 4 10 4 14 0 4-4 4-10 0-14l-41-41c-1-1-4-2-7-2z"  horiz-adv-x="1024" />

    
    <glyph glyph-name="Call_In" unicode="&#60274;" d="M615 561V773c0 24 20 45 45 45 2 0 5 0 8-0 21-3 37-22 37-44v-103L912 875c8 8 20 13 31 13 2 0 5 0 8-0 8-1 17-5 23-12 17-17 17-46 0-63l-186-186-20-20h103c2 0 5 0 8-0 20-3 37-22 37-44 0-24-20-45-45-45H660c-15 0-29 8-37 20-4 7-6 16-6 25zM926 1c-3-5-8-12-13-17-1-2-3-3-5-5-34-37-71-74-123-89-20-5-43-11-64-11-30 0-63 8-92 15-28 7-56 17-83 28-196 84-342 218-434 402-16 32-31 66-43 101-14 40-25 83-31 126-0 8-2 16-2 23-5 64 16 119 60 166 15 16 31 31 48 46 6 5 13 10 20 14 43 25 99 22 138-13 36-33 70-69 101-107 33-40 34-94 5-135-3-5-8-11-13-17-11-13-25-25-38-37-28-26-31-54-10-86 51-79 117-146 192-203 28-21 56-19 82 4 13 11 25 24 39 36 6 5 14 11 22 15 44 24 100 18 138-17 32-31 63-64 94-98 34-40 39-96 11-139zM908-21c-3 0-13-14-16-17-5-5-11-11-17-17-11-11-24-21-37-30-27-18-60-29-94-33-36-3-72 2-108 11-1 0-2 0-4 1-0 0-1 0-2 0-28 7-56 17-83 28-196 84-342 218-434 402-16 32-31 66-43 101-14 40-25 83-31 126 268-526 604-598 873-575zM407 545L161 803c43 25 99 22 138-13 36-33 70-69 101-107 32-40 33-94 5-136zM926 1L681 257c44 24 100 18 138-17 32-31 63-64 94-98 35-40 40-96 12-139z"  horiz-adv-x="1024" />

    
    <glyph glyph-name="Shopping_Basket" unicode="&#60530;" d="M489 810m-36-36a51 51 0 1 1 72 72 51 51 0 1 1-72-72ZM489 732c-20 0-40 7-55 22-14 14-22 33-22 55 0 20 7 40 22 55C464 896 513 896 544 866c30-30 30-79 0-110-14-14-34-22-55-22z m0 102c-6 0-12-2-18-7-4-4-7-11-7-18 0-7 2-13 7-18 9-9 25-9 35 0 4 4 7 11 7 18 0 7-2 13-7 18-4 4-11 7-17 7zM142 510c-7 0-13 2-18 7a26 26 0 0 0 0 37L433 865c10 10 26 10 37 0 10-10 10-26 0-37L160 518c-4-5-11-7-18-7zM649 810m-36-36a51 51 0 1 1 72 72 51 51 0 1 1-72-72ZM649 732c-20 0-40 7-55 22-30 30-30 79 0 110 30 29 79 30 110 0 14-14 22-33 22-55 0-20-7-40-22-55-14-14-33-22-55-22z m0 102c-6 0-12-2-18-7-4-4-7-11-7-18 0-7 2-13 7-18 9-9 25-9 35 0 4 4 7 11 7 18 0 7-2 13-7 18-3 4-10 7-17 7zM996 510c-7 0-13 2-18 7L667 828a26 26 0 0 0 0 37c10 10 26 10 37 0l309-309c10-10 10-26 0-37-4-5-11-7-18-7zM1076 387l-85-445c-6-39-40-67-79-67H219c-39 0-73 29-79 67L54 387h1022zM1076 387l-7-41-77-404c-6-39-40-67-79-67H219c-39 0-73 29-79 67L62 345l-7 41h1022zM1076 387l-11-59-996-0-14 60zM86 387H59c-31 0-56 22-56 50v54c0 28 25 50 56 50H1071c31 0 56-22 56-50v-54c0-28-25-50-56-50H86zM270 268c-2 11-14 19-25 17-11-2-19-14-17-25l52-269c5-28 48-19 42 8l-51 269zM417 268c-1 11-12 20-24 18-11-1-20-12-18-24 7-55 29-211 37-269 3-28 47-22 43 6-3 23-33 237-37 268zM544 265v-269c0-29 44-29 44 0V265c-0 28-44 28-44 0zM714 268c-19-139-11-76-37-269-3-28 39-34 43-6l22 156c0 3 0 2 0 5l14 107c3 28-39 34-43 6zM861 268c-7-36-50-256-52-270-5-28 37-37 42-8l52 269c5 29-37 37-42 9z"  horiz-adv-x="1134" />

    
    <glyph glyph-name="Cart_Delete" unicode="&#60275;" d="M1088 623c-13 19-36 30-59 31h-770l-46 154c-10 34-41 58-78 58H39C18 866 1 849 1 828s17-37 37-37h94c2 0 4-1 4-4l188-620c14-47 58-79 108-79h475c21 0 37 17 37 38s-17 37-37 37H435c-16 0-31 10-36 26l-9 29h517c52 0 97 33 113 83l78 254c6 22 2 47-11 66zM911 606c0-89-45-168-115-214-40-26-88-41-140-41-141 0-256 114-256 256 0 16 1 32 4 48h502c2-15 4-31 4-48zM452 41c-46 0-84-37-84-84 0-46 37-84 84-84 46 0 84 37 84 84 0 46-37 84-84 84z m0-123c-22 0-40 18-40 40s18 40 40 40 40-18 40-40c0-22-18-40-40-40zM856 41c-46 0-84-37-84-84 0-46 37-84 84-84 46 0 84 37 84 84 0 46-37 84-84 84z m0-123c-22 0-40 18-40 40s18 40 40 40 40-18 40-40c0-22-18-40-40-40zM823 447c-38-25-84-40-133-40-135 0-244 108-244 244S554 895 689 895 933 786 933 651c-0-84-44-159-110-203zM597 624h184c36 0 36 54 0 54H597c-36 0-36-54 0-54z"  horiz-adv-x="1105" />

    
    <glyph glyph-name="Servers" unicode="&#60531;" d="M982-89H574c-12 0-22 9-22 22 0 12 9 22 22 22h407c12 0 22-9 22-22 0-11-9-22-22-22zM514 581c-12 0-22 13-22 29V678c0 15 9 29 22 29C526 707 536 693 536 678v-67c0-15-9-29-22-29zM514 293c-12 0-22 16-22 36V404c0 20 9 36 22 36 12 0 22-16 22-36v-74c0-20-9-36-22-36zM453-89H44c-12 0-22 9-22 22 0 12 9 22 22 22h408c12 0 22-9 22-22 0-11-9-22-22-22zM514-27c-12 0-22 9-22 22V130c0 12 9 22 22 22 12 0 22-9 22-22v-136c0-12-9-22-22-22zM514-67m-60 0a60 60 0 1 1 121 0 60 60 0 1 1-121 0ZM944 671H83c-18 0-33 15-33 33V860C49 878 65 893 83 893H944c18 0 33-15 33-33v-154c0-18-15-33-33-33zM128 776h29M157 763h-29c-7 0-13 6-13 13 0 6 6 13 13 13h29c7 0 13-6 13-13 0-6-6-13-13-13zM208 776h28M236 763h-29c-7 0-13 6-13 13 0 6 6 13 13 13h29c7 0 13-6 13-13 0-6-5-13-13-13zM287 776h29M316 763H287c-7 0-13 6-13 13 0 6 6 13 13 13h29c7 0 13-6 13-13 0-6-6-13-13-13zM366 776h28M395 763h-29c-7 0-13 6-13 13 0 6 6 13 13 13h29c7 0 13-6 13-13 0-6-5-13-13-13zM445 776h29M474 763h-29c-7 0-13 6-13 13 0 6 6 13 13 13h29c7 0 13-6 13-13 0-6-6-13-13-13zM525 776h28M553 763h-29c-7 0-13 6-13 13 0 6 6 13 13 13h29c7 0 13-6 13-13 0-6-5-13-13-13zM604 776H633M633 763h-29c-7 0-13 6-13 13 0 6 6 13 13 13H633c7 0 13-6 13-13 0-6-6-13-13-13zM860 776m-49 0a49 49 0 1 1 99 0 49 49 0 1 1-99 0ZM944 394H83c-18 0-33 15-33 33V583C49 601 65 617 83 617H944c18 0 33-15 33-33v-154c0-18-15-33-33-33zM128 500h29M157 487h-29c-7 0-13 6-13 13 0 6 6 13 13 13h29c7 0 13-6 13-13 0-6-6-13-13-13zM208 500h28M236 487h-29c-7 0-13 6-13 13 0 6 6 13 13 13h29c7 0 13-6 13-13 0-6-5-13-13-13zM287 500h29M316 487H287c-7 0-13 6-13 13 0 6 6 13 13 13h29c7 0 13-6 13-13 0-6-6-13-13-13zM366 500h28M395 487h-29c-7 0-13 6-13 13 0 6 6 13 13 13h29c7 0 13-6 13-13 0-6-5-13-13-13zM445 500h29M474 487h-29c-7 0-13 6-13 13 0 6 6 13 13 13h29c7 0 13-6 13-13 0-6-6-13-13-13zM525 500h28M553 487h-29c-7 0-13 6-13 13 0 6 6 13 13 13h29c7 0 13-6 13-13 0-6-5-13-13-13zM604 500H633M633 487h-29c-7 0-13 6-13 13 0 6 6 13 13 13H633c7 0 13-6 13-13 0-6-6-13-13-13zM860 500m-49 0a49 49 0 1 1 99 0 49 49 0 1 1-99 0ZM944 117H83c-18 0-33 15-33 33V306C49 325 65 340 83 340H944c18 0 33-15 33-33v-154c0-18-15-33-33-33zM128 223h29M157 210h-29c-7 0-13 6-13 13 0 6 6 13 13 13h29c7 0 13-6 13-13 0-6-6-13-13-13zM208 223h28M236 210h-29c-7 0-13 6-13 13 0 6 6 13 13 13h29c7 0 13-6 13-13 0-6-5-13-13-13zM287 223h29M316 210H287c-7 0-13 6-13 13 0 6 6 13 13 13h29c7 0 13-6 13-13 0-6-6-13-13-13zM366 223h28M395 210h-29c-7 0-13 6-13 13 0 6 6 13 13 13h29c7 0 13-6 13-13 0-6-5-13-13-13zM445 223h29M474 210h-29c-7 0-13 6-13 13 0 6 6 13 13 13h29c7 0 13-6 13-13 0-6-6-13-13-13zM525 223h28M553 210h-29c-7 0-13 6-13 13 0 6 6 13 13 13h29c7 0 13-6 13-13 0-6-5-13-13-13zM604 223H633M633 210h-29c-7 0-13 6-13 13 0 6 6 13 13 13H633c7 0 13-6 13-13 0-6-6-13-13-13zM860 223m-49 0a49 49 0 1 1 99 0 49 49 0 1 1-99 0Z"  horiz-adv-x="1024" />

    
    <glyph glyph-name="Cart_Added" unicode="&#60276;" d="M1093 623c-13 19-36 30-59 31h-770l-46 154c-10 34-41 58-78 58H44C22 866 5 849 5 828s17-37 38-37h94c2 0 4-1 5-4l188-620c14-47 58-79 108-79H917c21 0 38 17 38 38s-17 37-38 37H441c-16 0-31 10-36 26l-9 29h517c52 0 97 33 113 83l78 254c6 22 1 47-12 66zM916 606c0-89-45-168-115-214-40-26-88-41-140-41-141 0-256 114-256 256 0 16 1 32 4 48h502c4-15 5-31 5-48zM457 41c-46 0-84-37-84-84 0-46 37-84 84-84 46 0 84 37 84 84-0 46-38 84-84 84z m0-123c-22 0-40 18-40 40s18 40 40 40 40-18 40-40c0-22-18-40-40-40zM861 41c-46 0-84-37-84-84 0-46 37-84 84-84 46 0 84 37 84 84 0 46-37 84-84 84z m0-123c-22 0-40 18-40 40s18 40 40 40 40-18 40-40c0-22-17-40-40-40zM821 447C783 422 737 407 688 407c-135 0-244 108-244 244S552 896 688 896s244-108 244-244c0-85-43-160-110-203zM655 558c-8 0-15 3-21 9l-61 61c-11 11-11 30 0 41 11 11 30 11 41 0l40-40 105 105c11 11 30 11 41 0 11-11 11-30 0-41L676 567c-5-5-13-9-21-9z"  horiz-adv-x="1114" />

    
    <glyph glyph-name="Shaker" unicode="&#60532;" d="M237 555l68-648c2-20 22-35 47-35h311c25 0 45 15 47 35l68 648H237zM799 652l0 103c0 19-20 35-44 34V863c-28 3-64 6-103 8v-94l-389-52c-27-3-47-22-47-45V652H225C205 652 189 636 189 616v-21c0-20 16-36 36-36h573c20 0 36 16 36 36v21c0 20-16 36-36 36zM804 558c-1 0-3-0-5-0h-17l-67-640c-2-20-22-35-47-35H354c-25 0-46 15-47 35L239 557H226c-2 0-3 0-5 0h584zM835 616v-21c0-17-13-33-30-35-1 0-3-0-5-0h-17l-0-3v-0l-0-4-66-632c-1-14-12-26-28-32-5-2-12-3-19-3H354c-7 0-13 1-20 3-15 5-27 17-28 32L239 549l-0 4v4H225c-2 0-3 0-5 0-17 2-30 17-30 35v21C189 636 205 652 225 652l-10-2v28c0 22 20 42 47 45l389 52V871c38-2 73-5 103-8v-72c23 0 44-14 44-34V652c20 0 35-16 35-36zM835 616v-21c0-17-13-33-30-35-1 0-3-0-5-0h-17l-0-3H238v3H225c-2 0-3 0-5 0-17 2-30 17-30 35v21C189 636 205 652 225 652l-10-3v4h585v-0c20 0 35-16 35-36zM785 558v-0h-4l-0-4-0-4-66-632c-1-14-12-26-28-32-5-1-10-2-16-2H350c-5 0-11 0-17 2-15 5-27 17-28 32L238 549l-0 4-0 4H232v0h552zM774 553c-30-10-54-38-57-73l-67-573c-0-10-5-20-13-26H381c-7 6-12 15-13 26L300 480c-2 34-25 62-57 73h530zM261 705c-11 0-21 9-21 20-0 35 11 65 37 90C352 890 523 898 653 893c44-2 81-5 104-8 12-1 23-2 33-4 11-2 20-12 17-24-2-11-12-20-24-17-10 1-20 2-32 4-22 2-58 6-101 8-169 7-295-15-344-63-17-16-25-35-24-59 0-12-9-22-21-22z"  horiz-adv-x="1024" />

    
    <glyph glyph-name="Cash_Withdraw" unicode="&#60277;" d="M87 537H3V892h1019v-354h-158M115 588V790h791v-252M734 481l0-171h-680V481l126 223h676zM301 602a159 58 0 1 1 319 0 159 58 0 1 1-319 0ZM735 309l123 228V705L734 481zM735 309h-680V481h679zM473 705L338 481v-171h102V481l135 223zM939 43c0-22-13-43-35-51l-207-71c-189-64-135-64-323-1-80 26-35 3-275 187-19 12-29 27-35 48 0 0-0 2-0 3-0 0-1 15-1 16 0 62 69 101 123 68l232-141V116c-0 0 0 11 0 12v-4c0-1 0-3 0-3 0 2 0 5 1 7-1 6-2 12-2 19 0 22 9 42 23 57 14 14 35 23 57 23l416-23c12-0 22-10 22-23l0-37v-3l3-97zM495 66h209l-213-15c-44 0-81 35-81 81 0 11 2 21 6 31-0-5-1-10-1-16 0-45 35-81 81-81z"  horiz-adv-x="1024" />

    
    <glyph glyph-name="Shopping_Cart" unicode="&#60533;" d="M1125 642c-14 20-37 31-61 31H389c-22 0-39-17-39-39s17-39 39-39h671l-81-262c-5-18-22-30-41-30h-558l-160 530C208 867 176 891 137 891H40C18 891 0 873 0 851s17-39 39-39h97c2 0 5-1 5-4l194-640c15-49 60-82 111-82h491c22 0 39 17 39 39s-17 39-39 39H450c-16 0-32 11-37 27l-9 30h534c54 0 100 34 116 86l81 263c8 25 3 50-11 70zM467 49c-48 0-87-38-87-87 0-48 38-87 87-87 48 0 87 38 87 87 0 48-38 87-87 87z m0-128c-22 0-41 18-41 41s18 41 41 41 41-18 41-41-17-41-41-41zM886 49c-48 0-87-38-87-87 0-48 38-87 87-87 48 0 87 38 87 87 0 48-38 87-87 87z m0-128c-22 0-41 18-41 41s18 41 41 41 41-18 41-41-18-41-41-41zM490 328c-9 0-16 7-16 16V558c0 9 7 16 16 16s16-7 16-16v-213c0-9-7-16-16-16zM624 328c-9 0-16 7-16 16V558c0 9 7 16 16 16s16-7 16-16v-213c0-9-7-16-16-16zM759 328c-9 0-16 7-16 16V558c0 9 7 16 16 16s16-7 16-16v-213c0-9-7-16-16-16zM892 328c-9 0-16 7-16 16v76c0 9 7 16 16 16s16-7 16-16v-76c0-9-7-16-16-16zM892 458c-9 0-16 7-16 16V557c0 9 7 16 16 16s16-7 16-16v-82c0-9-7-16-16-16zM963 494H671c-9 0-16 7-16 16s7 16 16 16h291c9 0 16-7 16-16s-7-16-16-16zM624 494H420c-9 0-16 7-16 16s7 16 16 16h203c9 0 16-7 16-16s-7-16-16-16zM379 494H372c-9 0-16 7-16 16s7 16 16 16h6c9 0 16-7 16-16s-7-16-16-16zM933 383h-73c-9 0-16 7-16 16s7 16 16 16h73c9 0 16-7 16-16s-7-16-16-16zM809 383H625c-9 0-16 7-16 16s7 16 16 16h183c9 0 16-7 16-16s-7-16-16-16zM583 383h-169c-9 0-16 7-16 16s7 16 16 16h169c9 0 16-7 16-16s-7-16-16-16z"  horiz-adv-x="1142" />

    
    <glyph glyph-name="Cart_Add_2" unicode="&#60278;" d="M1071 617c-13 19-35 29-58 30h-757l-45 151c-10 33-41 57-77 57H38C17 857 1 840 1 819s16-37 37-37h92c2 0 4-1 4-4l185-610c14-46 57-78 107-78h468c20 0 37 16 37 37s-16 37-37 37H428c-16 0-30 10-35 25l-8 29h509c51 0 95 33 111 82l77 250c6 21 2 45-11 65zM897 600c0-87-45-166-113-211-39-25-87-41-137-41-139 0-252 112-252 252 0 16 1 32 4 47h495c2-16 4-31 4-47zM445 45c-45 0-83-37-83-83 0-45 37-83 83-83 45 0 83 37 83 83 0 45-37 83-83 83z m0-122c-21 0-39 17-39 39s17 39 39 39 39-17 39-39-17-39-39-39zM843 45c-45 0-83-37-83-83 0-45 37-83 83-83 45 0 83 37 83 83 0 45-37 83-83 83z m0-122c-21 0-39 17-39 39s17 39 39 39 39-17 39-39-17-39-39-39zM812 448c-37-24-83-39-131-39-133 0-240 107-240 240S548 889 681 889s240-107 240-240c0-83-43-158-108-200zM771 675h-63v63c0 35-53 35-53 0v-63h-63c-35 0-35-53 0-53h63v-63c0-35 53-35 53 0v63h63c35 0 35 53 0 53z"  horiz-adv-x="1088" />

    
    <glyph glyph-name="Shower" unicode="&#60534;" d="M854 856v-912H167V856C167 875 183 891 202 891h618c18 0 34-15 34-34zM884-124V-79c0 13-10 23-23 23H161c-13 0-23-10-23-23v-45h746zM769 346c-7 0-13 6-13 13V478c0 7 6 13 13 13s13-6 13-13v-117c0-7-6-13-13-13zM449 746c-5 0-10 2-12 8-18 41-64 64-110 55-13-2-25-8-36-16-6-4-14-2-19 3-4 6-2 14 3 19 14 10 30 17 48 20 57 11 116-18 140-71 3-6 0-15-6-18-2-2-4-2-6-2zM384 652l167 34-1 6c-9 45-55 75-101 66-45-9-75-55-66-101l1-6zM565 568c-6 0-12 4-13 11l-0 2c-1 7 3 14 11 16 7 1 14-3 16-11l0-2c1-7-3-14-11-16h-2zM583 506c-6 0-12 4-13 11l-0 2c-1 7 3 14 10 16 7 1 14-3 16-10l0-2c1-7-3-14-10-16-0-0-1-0-2-0zM600 444c-6 0-12 4-13 11l-0 2c-1 7 3 14 10 16 7 1 14-3 16-10l0-2c1-7-3-14-10-16-0-0-2-0-2-0zM617 383c-6 0-12 4-13 11l-0 2c-1 7 3 14 10 16 7 1 14-3 16-10l0-2c1-7-3-14-10-16-1-0-2-0-2-0zM634 322c-6 0-12 4-13 11l-0 2c-1 7 3 14 10 16 7 1 14-3 16-10l0-2c1-7-3-14-10-16-0-0-1-0-2-0zM510 598c-6 0-12 4-13 11l-0 2c-1 7 3 14 10 16 7 1 14-3 16-10l0-2c1-7-3-14-10-16-0-0-1-0-2-0zM528 537c-6 0-12 4-13 11l-0 2c-1 7 3 14 10 16 7 1 14-3 16-10l0-2c1-7-3-14-10-16-0-0-2-0-2-0zM545 475c-6 0-12 4-13 11l-0 2c-1 7 3 14 11 16 7 1 14-3 16-11l0-2c1-7-3-14-11-16h-2zM562 413c-6 0-12 4-13 11l-0 2c-1 7 3 14 10 16 7 1 14-3 16-10l0-2c1-7-3-14-10-16-1 0-2-0-2-0zM579 351c-6 0-12 4-13 11l-0 2c-1 7 3 14 10 16 7 1 14-3 16-10l0-2c1-7-3-14-10-16-0-0-1-0-2-0zM459 546c-6 0-12 4-13 11l-0 2c-1 7 3 14 10 16 7 1 14-3 16-10l0-2c1-7-3-14-10-16-0-0-2-0-2-0zM468 482c-6 0-12 4-13 11l-0 2c-1 7 3 14 10 16 7 1 14-3 16-10l0-2c1-7-3-14-10-16-0-0-2-0-2-0zM477 418c-6 0-12 4-13 11l-0 2c-1 7 3 14 10 16 7 1 14-3 16-10l0-2c1-7-3-14-10-16-0 0-2-0-2-0zM486 356c-6 0-12 4-13 11l-0 2c-1 7 3 14 11 16 7 1 14-3 16-11l0-2c1-7-3-14-11-16h-2zM495 292c-6 0-12 4-13 11l-0 2c-1 7 3 14 10 16 7 1 14-3 16-10l0-2c1-7-3-14-10-16-0-0-1-0-2-0zM401 575c-6 0-12 4-13 11l-0 2c-1 7 3 14 10 16 7 1 14-3 16-10l0-2c1-7-3-14-10-16-1-0-2-0-2-0zM410 512c-6 0-12 4-13 11l-0 2c-1 7 3 14 10 16 7 1 14-3 16-10l0-2c1-7-3-14-10-16-0-0-1-0-2-0zM419 448c-6 0-12 4-13 11l-0 2c-1 7 3 14 10 16 7 1 14-3 16-10l0-2c1-7-3-14-10-16-0-0-1-0-2-0zM428 385c-6 0-12 4-13 11l-0 2c-1 7 3 14 11 16 7 1 14-3 16-11l0-2c1-7-3-14-11-16H428zM437 322c-6 0-12 4-13 11l-0 2c-1 7 3 14 10 16 7 1 14-3 16-10l0-2c1-7-3-14-10-16-0-0-2-0-2-0zM268 891h27v-946h-27z"  horiz-adv-x="1024" />

    
    <glyph glyph-name="Cart_Pay" unicode="&#60279;" d="M1113 642c-14 19-36 30-60 31h-782L222 830C211 865 179 889 142 889H46C24 889 7 871 7 850s17-39 39-39h95c2 0 4-1 5-4l191-630c14-48 59-80 110-80h483c20 0 37 15 38 35v2c0 21-17 38-39 38H449c-16 0-31 10-36 26l-9 29h526c53 0 99 34 114 84l64 206 15 52c7 24 3 49-11 69zM971 135v-2c-19-4-40-7-62-7-55 0-107 18-148 49H932c22-0 39-18 39-39zM1108 522l-64-206c-15-50-61-84-114-84H705c-28 39-44 89-44 142 0 137 110 248 248 248 81 0 154-39 198-99zM467 50c-47 0-85-38-85-85 0-47 38-85 85-85 47 0 85 38 85 85 0 47-38 85-85 85z m0-126c-22 0-40 18-40 40s18 40 40 40 40-18 40-40-18-40-40-40zM878 50c-47 0-85-38-85-85 0-47 38-85 85-85 47 0 85 38 85 85 0 47-38 85-85 85z m0-126c-22 0-40 18-40 40s18 40 40 40 40-18 40-40-18-40-40-40zM1197 537c25-39 40-85 40-135 0-137-110-248-248-248S741 264 741 401s110 248 248 248c86-0 163-44 207-112zM1115 379l-73-73c-9-9-24-9-33 0s-9 24 0 33l33 33h-159c-12 0-23 10-23 23 0 12 10 23 23 23h159l-33 33c-9 9-9 24 0 33 4 4 10 6 16 6s11-2 16-6L1115 413c4-4 6-9 6-16s-2-12-6-16z"  horiz-adv-x="1240" />

    
    <glyph glyph-name="Procesor" unicode="&#60535;" d="M10 641c-5 0-10 4-10 10S5 662 10 662l136 0c5 0 10-4 10-10s-4-10-10-10L10 641zM12 414c-5 0-10 4-10 10s4 10 10 10l136 0c5 0 10-4 10-10s-4-10-10-10l-136-0zM13 191c-5 0-10 4-10 10s4 10 10 10l136 0c5 0 10-4 10-10s-4-10-10-10l-136-0zM11 530c-5 0-10 4-10 10s4 10 10 10l136 0c5 0 10-4 10-10s-4-10-10-10l-136-0zM12 302c-5 0-10 4-10 10s4 10 10 10l136 0c5 0 10-4 10-10s-4-10-10-10l-136-0zM13 89c-5 0-10 4-10 10s4 10 10 10l136 0c5 0 10-4 10-10s-4-10-10-10l-136-0zM1012 531h-136c-5 0-10 4-10 10s4 10 10 10h136c5 0 10-4 10-10s-4-10-10-10zM1012 302h-136c-5 0-10 4-10 10s4 10 10 10h136c5 0 10-4 10-10s-4-10-10-10zM1012 89h-136c-5 0-10 4-10 10s4 10 10 10h136c5 0 10-4 10-10s-4-10-10-10zM1012 642h-136c-5 0-10 4-10 10s4 10 10 10h136c5 0 10-4 10-10s-4-10-10-10zM1012 414h-136c-5 0-10 4-10 10s4 10 10 10h136c5 0 10-4 10-10s-4-10-10-10zM1012 201h-136c-5 0-10 4-10 10s4 10 10 10h136c5 0 10-4 10-10s-4-10-10-10zM341-128c-5 0-10 4-10 10v136c0 5 4 10 10 10s10-4 10-10v-136c0-5-4-10-10-10zM569-128c-5 0-10 4-10 10v136c0 5 4 10 10 10s10-4 10-10v-136c0-5-4-10-10-10zM782-128c-5 0-10 4-10 10v136c0 5 4 10 10 10s10-4 10-10v-136c0-5-4-10-10-10zM230-128c-5 0-10 4-10 10v136c0 5 4 10 10 10s10-4 10-10v-136c0-5-4-10-10-10zM458-128c-5 0-10 4-10 10v136c0 5 4 10 10 10s10-4 10-10v-136c0-5-4-10-10-10zM670-128c-5 0-10 4-10 10v136c0 5 4 10 10 10s10-4 10-10v-136c0-5-4-10-10-10zM239 735c-5 0-10 4-10 10V882c0 5 4 10 10 10s10-4 10-10v-136c0-5-4-10-10-10zM467 735c-5 0-10 4-10 10V882c0 5 4 10 10 10s10-4 10-10v-136c0-5-4-10-10-10zM680 735c-5 0-10 4-10 10V882c0 5 4 10 10 10s10-4 10-10v-136c0-5-4-10-10-10zM341 735c-5 0-10 4-10 10V882c0 5 4 10 10 10s10-4 10-10v-136c0-5-4-10-10-10zM569 735c-5 0-10 4-10 10V882c0 5 4 10 10 10s10-4 10-10v-136c0-5-4-10-10-10zM782 735c-5 0-10 4-10 10V882c0 5 4 10 10 10s10-4 10-10v-136c0-5-4-10-10-10zM816 13H199c-30 0-56 25-56 56V687c0 30 25 56 56 56h617c30 0 56-25 56-56v-617c0-30-25-56-56-56zM758 157m-32 0a32 32 0 1 1 65 0 32 32 0 1 1-65 0ZM647 210H368c-15 0-27 12-27 27V518c0 15 12 27 27 27h279c15 0 27-12 27-27v-279c0-15-12-28-27-28z"  horiz-adv-x="1024" />

    
    <glyph glyph-name="Book" unicode="&#60280;" d="M1375 801v-889c0-16-12-29-29-29H35c-16 0-29 12-29 29V801c0 16 12 29 29 29h1310c15 0 29-13 29-29zM687 654v-772h-45c-30 29-74 47-121 47H80c-23 0-42 17-42 38V768c0 12 7 24 17 31 7 4 15 7 24 7h439c92 0 167-67 167-151zM1344 768v-800c0-21-19-38-42-38H863c-47 0-91-18-121-47h-45V654c0 84 74 152 167 152h439c9 0 17-2 24-7 10-7 17-18 17-32zM693 731v-857h-5c-18 67-83 117-160 117H90c-22 0-42 17-42 39V847C48 869 67 886 90 886h437c44 0 85-16 115-43 32-27 51-67 51-111zM1338 848v-817c0-21-19-39-42-39H859c-77 0-142-50-160-117h-5V731c0 43 19 84 51 112C774 871 814 887 859 887h437c22 0 42-18 42-39zM399 136H263c-8 0-15 6-15 15s6 15 15 15h136c8 0 15-6 15-15s-7-15-15-15zM196 136h-23c-8 0-15 6-15 15s6 15 15 15h23c8 0 15-6 15-15s-7-15-15-15zM565 244H429c-8 0-15 6-15 15s6 15 15 15h135c8 0 15-6 15-15s-7-15-15-15zM373 244H175c-8 0-15 6-15 15s6 15 15 15h197c8 0 15-6 15-15s-7-15-15-15zM467 352H179c-8 0-15 6-15 15 0 8 6 15 15 15h288c8 0 15-6 15-15-0-8-7-15-15-15zM467 566H179c-8 0-15 6-15 15s6 15 15 15h288c8 0 15-6 15-15S475 566 467 566zM570 460H384c-8 0-15 6-15 15 0 8 6 15 15 15h185c8 0 15-6 15-15s-6-15-14-15zM324 460H181c-8 0-15 6-15 15 0 8 6 15 15 15h143c8 0 15-6 15-15-0-9-7-15-15-15zM570 682h-88c-8 0-15 6-15 15s6 15 15 15h88c8 0 15-6 15-15s-7-15-15-15zM410 682H181c-8 0-15 6-15 15s6 15 15 15h229c8 0 15-6 15-15s-7-15-15-15zM1044 271H914c-8 0-15 6-15 15s6 15 15 15h129c8 0 15-6 15-15s-7-15-15-15zM1202 378h-128c-8 0-15 6-15 15s6 15 15 15h128c8 0 15-6 15-15s-7-15-15-15zM1018 378H830c-8 0-15 6-15 15s6 15 15 15h188c8 0 15-6 15-15s-7-15-15-15zM1108 484H832c-8 0-15 6-15 15s6 15 15 15h275c8 0 15-6 15-15s-7-15-15-15zM1206 590h-177c-8 0-15 6-15 15s6 15 15 15H1206c8 0 15-6 15-15s-6-15-15-15zM972 590h-137c-8 0-15 6-15 15s6 15 15 15h137c8 0 15-6 15-15s-7-15-15-15zM1206 693h-85c-8 0-15 6-15 15s6 15 15 15h85c8 0 15-6 15-15s-6-15-15-15zM1055 693h-219c-8 0-15 6-15 15s6 15 15 15h219c8 0 15-6 15-15s-7-15-15-15zM874-64l-23 25-27-27c-3-3-10-0-10 3V881c0 6 5 11 11 11h58v-955c0-4-6-6-9-2z"  horiz-adv-x="1380" />

    
    <glyph glyph-name="Piggybank" unicode="&#60536;" d="M1000 305c0 5 0 10-0 14-6 46-45 13-83 35-7 4-13 9-20 18-41 55-95 94-50 185 2 3 4 7 6 11 4 9-2 19-12 19h-1c-80-12-74-45-124-45-64 0-200 0-312 0-201 0-309-212-209-371 55-88 101-180 129-281 3-12 9-15 24-15 10 0 25 0 46 0 12 0 18 5 21 16 6 20 13 40 19 61 4 14 13 21 28 21 43-1 88-2 132-3 20-0 34-11 42-29 0-1 1-2 2-4l14-44c3-12 11-18 24-18h0c62 1 66-4 74 24 12 44 25 88 38 132 21 74 81 50 199 164 12 13 9 32 9 110z m-220 21c-2 0-5 0-8 1-16 4-28 19-28 36 0 19 16 35 36 36 17 0 32-12 36-28 0-2 0-5 0-7 1-20-15-37-36-37zM822 87c-1 2-4 4-7 2-169-64-371-69-501-7-10 4-24 2-31-5-8-8-9-21-4-32 19-36 38-78 55-131 2-5 4-12 5-17 1-5 3-12 5-17 10 0 25 0 46 0 12 0 18 5 21 16 6 20 13 40 19 61 4 14 13 21 28 21 43-1 88-2 132-3 20-0 34-11 42-29 4-15 7-27 12-37v-0c1-3 2-6 4-9v-0c4-7 12-14 23-20 42 0 58-1 66 4 0 0 0 0 0 0l0 0 1 1c1 1 2 3 2 5 0 2 2 4 2 8 0 0 0 1 0 2 2 9 4 17 7 26 9 34 19 69 29 103v0c0 0 0 2 0 2 2 9 6 17 9 24l0 0c5 9 12 16 19 21 3 2 4 6 2 9zM817 364c0-20-16-37-36-37-9 0-19 4-25 10-7 7-11 16-11 26 0 19 16 35 36 36 19 0 34-13 36-31 0-0 0-2 0-3zM817 364c0-20-16-37-36-37-9 0-19 4-25 10v4c0 19 16 35 36 36 9 0 19-3 26-9v-4zM820 78c-9-7-14-12-19-21l-0-0c-2-5-5-12-9-21l-2-6v-0c-7-21-15-52-29-103-2-7-4-16-7-26 0-0-0-1-0-2-0-3-2-6-2-8-0-2-2-4-2-5l-1-1-0-0-0-0c-7-6-24-4-66-4-8 0-16 8-23 20v0c-1 2-3 6-4 9v0c-4 10-9 23-12 37-7 18-21 28-42 29-43 1-88 2-132 3-15 0-24-7-28-21-6-20-13-40-19-61-3-10-9-16-21-16-21 0-36-0-46 0-2 6-3 12-5 17-2 6-3 12-5 17-17 52-37 95-55 131-5 10-3 23 4 32 8 8 21 11 31 5 129-61 332-56 501 7 2 1 6 0 7-2 1-3 0-7-2-9zM644 481c12-1 24-3 33-5 13-2 21-16 19-30-2-13-16-21-30-19-60 13-195 17-262-6-2-0-5-1-8-1-10 0-19 6-23 16-4 12 2 27 14 32 38 14 96 19 152 20M570 488h1M77 327c-12 0-24 3-33 9C28 347 19 366 23 383c1 7 8 12 16 11 7-1 12-8 11-16-1-6 2-13 8-17 6-4 14-5 24-4-11 8-16 20-15 33 0 8 4 16 12 21 7 5 16 8 25 7 16-2 29-15 32-31 0-5 0-12-0-17 7-1 15-2 22-4 7-1 12-8 12-16-1-7-8-12-16-12-11 2-22 3-34 6-8-7-19-12-31-14-3-1-7-1-11-1z m24 62c-1 0-2-0-4-1-0-0-1-2-1-2 0-2 2-5 5-7 2-1 5-2 8-3 0 2 0 4 0 7-0 3-4 7-9 8 0 0 0 0 0 0zM538 720c-88 0-159-71-159-159 0-54 27-102 68-131 57 9 131 7 183 1 40 28 66 76 66 129 0 88-71 159-158 159z m15-230v-9c0-7-5-13-13-13-7 0-13 5-13 13v7c-7 0-14 2-21 5-6 2-9 10-7 17 2 5 7 9 13 9 2 0 4-0 5-1 4-2 11-4 19-4 9 0 16 4 16 12 0 6-2 11-18 17-18 7-38 17-38 41 0 18 12 33 30 38v8c0 7 5 13 13 13 7 0 13-5 13-13v-7c5-0 11-2 15-4 7-2 10-11 7-18-2-5-7-9-13-9-2 0-3 0-5 1-4 2-10 2-16 2-13 0-14-7-14-10 0-5 2-9 20-16 16-7 36-17 36-43 0-17-12-33-31-38zM550 573c-17 7-20 11-20 16 0 2 0 10 14 10 5 0 11-0 16-2 1-0 3-1 5-1 5 0 11 3 13 9 2 7-0 15-7 18-4 2-9 3-15 4v7c0 7-5 13-13 13-7 0-13-5-13-13v-8c-19-4-30-19-30-38 0-23 19-34 38-41 15-6 18-11 18-17 0-7-7-12-16-12-8 0-14 2-19 4-2 0-3 1-5 1-5 0-11-3-13-9-2-7 0-14 7-17 6-2 13-4 21-5v-7c0-7 5-13 13-13 7 0 13 5 13 13v9c19 5 31 21 31 40-0 24-19 35-36 42zM668 850c0 7-6 14-14 14s-14-6-14-14v-26c0-7 6-14 14-14s14 6 14 14V850zM654 783c-7 0-14-6-14-14v-50c0-7 6-14 14-14s14 6 14 14v50c0 7-6 14-14 14zM615 741c7 0 14 6 14 14V881c0 7-6 14-14 14s-14-6-14-14v-125c0-7 6-14 14-14z"  horiz-adv-x="1024" />

    
    <glyph glyph-name="Buy" unicode="&#60281;" d="M1236 248l-1139-2c-49 0-88 39-89 88L5 801C5 851 44 890 94 891L1234 893c49 0 88-39 89-88l1-467c0-50-39-89-88-89zM1273 501l238-238c52-52 52-136 0-189l-157-157c-15-15-36-25-59-27-67-6-216-16-253-9-10 2-20 7-29 14L869 36c42 42 111 42 154 0l57-57 13 13-337 337c-20 20-20 56 0 77s56 20 77 0l164-164 13 12-55 55c-20 20-21 56 0 77 20 20 56 20 77 0l55-55 14 14-27 27c-19 19-19 52 0 72 19 19 52 19 72 0l28-28 16 15c-14 19-12 48 5 65 21 20 54 20 74 1zM285 427V688h117c55 0 88-33 88-68 0-38-33-54-33-54s45-14 45-61c0-38-37-76-95-76H285v1z m71 204v-44h38c15 0 24 9 24 21 0 12-9 21-24 21h-38v1z m48-149c16 0 28 11 28 26s-11 26-28 26h-48v-52h48zM714 535V688h71v-152c0-64-50-114-119-114-68 0-119 50-119 114V688h71v-152c0-29 21-52 48-52 26 0 48 22 48 52zM1069 688l-92-167v-92h-71v92l-92 167h76l52-100 52 100z"  horiz-adv-x="1556" />

    
    <glyph glyph-name="POS_2" unicode="&#60537;" d="M832 516v-376c0-15-12-27-27-27h-225c-15 0-27 12-27 27V516c0 15 12 27 27 27h225c15 0 27-12 27-27zM608 544h54v-432h-54zM832 389v-131l44-49c8-8 12-20 13-32l2-40c0-6-3-11-8-12l-47-13c-6-2-14 1-17 8l-0 1-7 17-27 66c-2 4-4 8-6 11-14 18-40 25-62 15-8-4-14-13-14-23 0-2 0-5 1-8l29-84 36-105c5-17 15-32 28-43l37-33 19-17c3-2 7-4 11-4 23 0 103 1 139 0 9 0 17 7 17 17v247c0 20-8 39-22 53l-165 161zM752 728c-7 0-13 6-13 13v19c0 7 6 13 13 13s13-6 13-13v-19c0-7-6-13-13-13zM752 564c-7 0-13 6-13 13V695c0 7 6 13 13 13s13-6 13-13v-117c0-7-6-13-13-13zM686 741c-7 0-13 6-13 13V833c0 7 6 13 13 13s13-6 13-13v-78c0-7-6-13-13-13zM686 564c-7 0-13 6-13 13V698c0 7 6 13 13 13s13-6 13-13v-120c0-7-6-13-13-13zM214 716h334c28 0 52-23 52-52v-331c0-7 0-15-0-22l-31-377c-2-33-30-59-64-59H105c-33 0-61 25-64 59L10 310c-0 7-0 15-0 22V663c0 28 23 52 52 52h54M116 716h40M525 517v-98c0-14-10-25-24-25H109c-13 0-24 11-24 25V517c0 14 10 25 24 25h391c13 0 24-11 24-25zM304 277m-37 0a37 37 0 1 1 75 0 37 37 0 1 1-75 0ZM304 146m-37 0a37 37 0 1 1 75 0 37 37 0 1 1-75 0ZM160 277m-37 0a37 37 0 1 1 75 0 37 37 0 1 1-75 0ZM446 277m-37 0a37 37 0 1 1 75 0 37 37 0 1 1-75 0ZM161 147m-37 0a37 37 0 1 1 75 0 37 37 0 1 1-75 0ZM446 147m-37 0a37 37 0 1 1 75 0 37 37 0 1 1-75 0ZM161 18m-37 0a37 37 0 1 1 75 0 37 37 0 1 1-75 0ZM304 18m-37 0a37 37 0 1 1 75 0 37 37 0 1 1-75 0ZM446 18m-37 0a37 37 0 1 1 75 0 37 37 0 1 1-75 0ZM525 582H89c-9 0-17 7-17 17s7 17 17 17h436c9 0 17-7 17-17 0-8-7-17-17-17zM421 857V893l-38-29L344 893l-38-29L266 893l-38-29L188 893l-38-29L110 893v-201c0-52 10-75 54-92h313c-43 11-55 38-54 92V777M349 716H163c-6 0-12 5-12 12 0 6 5 12 12 12h185c6 0 12-5 12-12 0-7-5-12-12-12zM349 780H277c-6 0-12 5-12 12 0 7 5 12 12 12h72c6 0 12-5 12-12 0-7-5-12-12-12zM191 780h-27c-6 0-12 5-12 12 0 7 5 12 12 12h27c6 0 12-5 12-12 0-7-5-12-12-12z"  horiz-adv-x="1024" />

    
    <glyph glyph-name="Charts_2" unicode="&#60282;" d="M932 695L844 874C836 890 817 896 801 889L622 800c-16-7-22-27-14-43 7-16 27-22 43-14l110 54C645 501 271 322 114 285c-17-4-27-21-24-39 3-14 16-25 31-25 2 0 4 0 7 0 175 41 568 229 692 553l53-109c5-11 16-18 29-18 4 0 9 1 13 3 16 8 22 27 14 43zM932 695L844 874C836 890 817 896 801 889L622 800c-16-7-22-27-14-43 7-16 27-22 43-14l110 54C645 501 271 322 114 285c-17-4-27-21-24-39 3-14 16-25 31-25 2 0 4 0 7 0 175 41 568 229 692 553l53-109c5-11 16-18 29-18 4 0 9 1 13 3 16 8 22 27 14 43zM254-123H117c-13 0-23 10-23 23v151c0 13 10 23 23 23h137c13 0 23-10 23-23v-151c-0-13-11-23-23-23zM557-123H420c-13 0-23 10-23 23V229c0 13 10 23 23 23h137c13 0 23-10 23-23v-328c-0-13-11-23-23-23zM861-123H724c-13 0-23 10-23 23v571c0 13 10 23 23 23h137c13 0 23-10 23-23v-571c-0-13-11-23-23-23z"  horiz-adv-x="1024" />

    
    <glyph glyph-name="Wallet" unicode="&#60538;" d="M73 309V546c0 38 30 68 68 68H788c37 0 67-30 67-67v-457c0-37-30-67-67-67H141c-37 0-67 30-67 67v16M812 452H197l268 268c3 3 6 6 11 8 0 0 1 0 2 1 1 0 3 1 4 2 13 5 27 5 40 0 1-0 3-1 4-2 0-0 1-0 2-1 0 0 0-0 1-0 2-1 4-2 5-4 1-1 2-2 4-3l269-268zM732 433L535 630c-18-18-48-18-67 0L271 433M857 481H144C105 482 74 515 74 554v-609c0-40 33-73 73-73H857c40 0 73 33 73 73V408c0 40-32 73-73 73zM902-76h-6c-5 0-10 4-10 10s4 10 10 10h6c5 0 10-4 10-10s-4-10-10-10z m-55 0h-6c-5 0-10 4-10 10s4 10 10 10h6c5 0 10-4 10-10s-4-10-10-10z m-55 0h-6c-5 0-10 4-10 10s4 10 10 10h6c5 0 10-4 10-10s-4-10-10-10z m-55 0h-6c-5 0-10 4-10 10s4 10 10 10h6c5 0 10-4 10-10s-4-10-10-10z m-55 0h-6c-5 0-10 4-10 10s4 10 10 10h6c5 0 10-4 10-10s-4-10-10-10z m-55 0h-6c-5 0-10 4-10 10s4 10 10 10h6c5 0 10-4 10-10s-4-10-10-10z m-55 0h-6c-5 0-10 4-10 10s4 10 10 10h6c5 0 10-4 10-10s-4-10-10-10z m-55 0h-6c-5 0-10 4-10 10s4 10 10 10h6c5 0 10-4 10-10s-4-10-10-10z m-55 0h-6c-5 0-10 4-10 10s4 10 10 10h6c5 0 10-4 10-10s-4-10-10-10z m-55 0h-6c-5 0-10 4-10 10s4 10 10 10h6c5 0 10-4 10-10s-4-10-10-10z m-55 0h-6c-5 0-10 4-10 10s4 10 10 10h6c5 0 10-4 10-10s-4-10-10-10z m-55 0h-6c-5 0-10 4-10 10s4 10 10 10h6c5 0 10-4 10-10s-4-10-10-10z m-55 0h-6c-5 0-10 4-10 10s4 10 10 10h6c5 0 10-4 10-10s-4-10-10-10z m-55 0h-6c-5 0-10 4-10 10s4 10 10 10h6c5 0 10-4 10-10s-4-10-10-10z m-37 29c-5 0-10 4-10 10v6c0 5 4 10 10 10s10-4 10-10v-6c0-5-4-10-10-10z m0 55c-5 0-10 4-10 10v6c0 5 4 10 10 10s10-4 10-10v-6c0-5-4-10-10-10z m0 55c-5 0-10 4-10 10v6c0 5 4 10 10 10s10-4 10-10v-6c0-5-4-10-10-10z m0 55c-5 0-10 4-10 10v6c0 5 4 10 10 10s10-4 10-10v-6c0-5-4-10-10-10z m0 55c-5 0-10 4-10 10v6c0 5 4 10 10 10s10-4 10-10v-6c0-5-4-10-10-10z m0 55c-5 0-10 4-10 10v6c0 5 4 10 10 10s10-4 10-10v-6c0-5-4-10-10-10z m0 55c-5 0-10 4-10 10v6c0 5 4 10 10 10s10-4 10-10v-6c0-5-4-10-10-10z m0 55c-5 0-10 4-10 10v6c0 5 4 10 10 10s10-4 10-10v-6c0-5-4-10-10-10z m5 53c-2 0-4 0-6 2-4 3-5 9-2 14 2 2 4 4 6 6 4 3 11 2 14-1 3-4 2-11-1-14-1-0-2-2-2-3-2-2-5-4-8-4z m722 11h-6c-5 0-10 4-10 10s4 10 10 10h6c5 0 10-4 10-10s-4-10-10-10z m-55 0h-6c-5 0-10 4-10 10s4 10 10 10h6c5 0 10-4 10-10s-4-10-10-10z m-55 0h-6c-5 0-10 4-10 10s4 10 10 10h6c5 0 10-4 10-10s-4-10-10-10z m-55 0h-6c-5 0-10 4-10 10s4 10 10 10h6c5 0 10-4 10-10s-4-10-10-10z m-55 0h-6c-5 0-10 4-10 10s4 10 10 10h6c5 0 10-4 10-10s-4-10-10-10z m-55 0h-6c-5 0-10 4-10 10s4 10 10 10h6c5 0 10-4 10-10s-4-10-10-10z m-55 0h-6c-5 0-10 4-10 10s4 10 10 10h6c5 0 10-4 10-10s-4-10-10-10z m-55 0h-6c-5 0-10 4-10 10s4 10 10 10h6c5 0 10-4 10-10s-4-10-10-10z m-55 0h-6c-5 0-10 4-10 10s4 10 10 10h6c5 0 10-4 10-10s-4-10-10-10z m-55 0h-6c-5 0-10 4-10 10s4 10 10 10h6c5 0 10-4 10-10s-4-10-10-10z m-55 0h-6c-5 0-10 4-10 10s4 10 10 10h6c5 0 10-4 10-10s-4-10-10-10z m-55 0h-6c-5 0-10 4-10 10s4 10 10 10h6c5 0 10-4 10-10s-4-10-10-10z m-55 0h-6c-5 0-10 4-10 10s4 10 10 10h6c5 0 10-4 10-10s-4-10-10-10zM931 215v-172H754c-25 0-48 11-64 29-13 15-22 35-22 57 0 23 9 44 24 60 15 15 37 24 60 24h177zM953 257v-172H753c-25 0-48 11-64 29-13 15-22 35-22 57 0 23 9 44 24 60 15 15 37 24 60 24h200zM738 206c4 2 10 3 16 3 24 0 44-19 44-44 0-24-19-44-44-44-24 0-44 19-44 44 0 13 6 25 15 33M727 199c3 2 7 5 11 6M633 877c-7 0-13-6-13-13v-3c0-7 6-13 13-13s13 6 13 13v3c0 7-6 13-13 13zM633 840c-7 0-13-6-13-13v-78c0-7 6-13 13-13s13 6 13 13V826c0 7-6 13-13 13zM810 771c-4 6-13 8-19 3L693 709c-6-4-8-13-3-19 2-4 6-6 11-6 2 0 5 0 7 2l97 65c6 5 7 13 3 20zM752 856c2-1 4-2 6-2 4 0 8 2 11 6l8 13c4 6 2 15-4 19-6 4-15 2-19-4l-8-13c-3-6-1-15 5-19zM698 743l51 83c4 6 2 15-4 19-6 4-15 2-19-4l-51-83c-4-6-2-15 4-19 2-1 4-2 6-2 5 0 9 2 12 6z"  horiz-adv-x="1024" />

    
    <glyph glyph-name="Cart_Add" unicode="&#60283;" d="M1071 617c-13 19-35 29-58 30h-757L208 799c-10 33-41 57-77 57H38C17 856 0 839 0 818s16-37 37-37h92c2 0 4-1 4-4l185-610c14-46 57-78 107-78h468c20 0 37 16 37 37s-16 37-37 37H428c-16 0-30 10-35 25L384 218h509c51 0 95 33 111 82l77 250c7 22 3 46-11 65zM898 600c0-87-45-166-113-211-39-25-87-41-138-41-139 0-252 112-252 252 0 16 1 32 4 47h495c3-15 4-31 4-47zM445 44c-45 0-83-37-83-83 0-45 37-83 83-83 45 0 83 37 83 83 0 45-37 83-83 83z m0-121c-21 0-39 17-39 39s17 39 39 39 39-17 39-39c0-22-17-39-39-39zM844 44c-45 0-83-37-83-83 0-45 37-83 83-83 45 0 83 37 83 83 0 45-37 83-83 83z m0-121c-21 0-39 17-39 39s17 39 39 39 39-17 39-39c0-22-17-39-39-39zM810 448c-37-24-83-39-131-39-133 0-240 107-240 240S545 889 678 889 919 782 919 649c-0-83-43-157-108-200zM657 528l-70 70c-8 8-8 23 0 32s23 8 32 0l32-32V753c0 12 10 22 22 22 12 0 22-10 22-22v-154l32 32c8 8 23 8 32 0 4-4 6-10 6-16s-2-11-6-16l-70-70c-4-4-9-6-16-6s-12 2-16 6z"  horiz-adv-x="1088" />

    
    <glyph glyph-name="Servers_2" unicode="&#60539;" d="M183 652h782v-104H183zM966 597H183V624l782 84zM65 617v34h782v-105H65v36M65 633h782v-35H65zM956 627H71C49 627 31 645 31 666V851C31 873 49 891 71 891h885c21 0 39-18 39-39v-184c0-22-18-39-39-39zM144 891h686c15 0 28-12 28-27v-207c0-15-12-28-28-28H59c-15 0-28 12-28 28V863c0 15 12 27 28 27h18M356 802m-7-7a11 11 0 1 1 15 15 11 11 0 1 1-15-15ZM356 752m-7-7a11 11 0 1 1 15 15 11 11 0 1 1-15-15ZM356 702m-7-7a11 11 0 1 1 15 15 11 11 0 1 1-15-15ZM406 775m-7-7a11 11 0 1 1 15 15 11 11 0 1 1-15-15ZM406 725m-7-7a11 11 0 1 1 15 15 11 11 0 1 1-15-15ZM456 802m-7-7a11 11 0 1 1 15 15 11 11 0 1 1-15-15ZM456 752m-7-7a11 11 0 1 1 15 15 11 11 0 1 1-15-15ZM456 702m-7-7a11 11 0 1 1 15 15 11 11 0 1 1-15-15ZM506 774m-7-7a11 11 0 1 1 15 15 11 11 0 1 1-15-15ZM506 724m-7-7a11 11 0 1 1 15 15 11 11 0 1 1-15-15ZM556 802m-7-7a11 11 0 1 1 15 15 11 11 0 1 1-15-15ZM556 751m-7-7a11 11 0 1 1 15 15 11 11 0 1 1-15-15ZM556 701m-7-7a11 11 0 1 1 15 15 11 11 0 1 1-15-15ZM606 774m-7-7a11 11 0 1 1 15 15 11 11 0 1 1-15-15ZM606 724m-7-7a11 11 0 1 1 15 15 11 11 0 1 1-15-15ZM656 802m-7-7a11 11 0 1 1 15 15 11 11 0 1 1-15-15ZM656 752m-7-7a11 11 0 1 1 15 15 11 11 0 1 1-15-15ZM656 701m-7-7a11 11 0 1 1 15 15 11 11 0 1 1-15-15ZM706 775m-7-7a11 11 0 1 1 15 15 11 11 0 1 1-15-15ZM706 724m-7-7a11 11 0 1 1 15 15 11 11 0 1 1-15-15ZM756 802m-7-7a11 11 0 1 1 15 15 11 11 0 1 1-15-15ZM756 752m-7-7a11 11 0 1 1 15 15 11 11 0 1 1-15-15ZM756 702m-7-7a11 11 0 1 1 15 15 11 11 0 1 1-15-15ZM174 747m-54 0a54 54 0 1 1 108 0 54 54 0 1 1-108 0ZM183 315h782v-104H183zM966 260H183v27l782 8zM65 280v34h782v-104H65v35M65 300h782v-39H65zM956 289H71C49 289 31 308 31 329V514c0 21 18 39 39 39h885c21 0 39-18 39-39v-184c0-21-18-39-39-39zM144 553h686c15 0 28-12 28-27v-207c0-15-12-28-28-28H59C43 289 30 302 30 318V526c0 15 12 27 28 27h18M356 465m-7-7a11 11 0 1 1 15 15 11 11 0 1 1-15-15ZM356 415m-7-7a11 11 0 1 1 15 15 11 11 0 1 1-15-15ZM356 365m-7-7a11 11 0 1 1 15 15 11 11 0 1 1-15-15ZM406 438m-7-7a11 11 0 1 1 15 15 11 11 0 1 1-15-15ZM406 388m-7-7a11 11 0 1 1 15 15 11 11 0 1 1-15-15ZM456 465m-7-7a11 11 0 1 1 15 15 11 11 0 1 1-15-15ZM456 415m-7-7a11 11 0 1 1 15 15 11 11 0 1 1-15-15ZM456 365m-7-7a11 11 0 1 1 15 15 11 11 0 1 1-15-15ZM505 438m-7-7a11 11 0 1 1 15 15 11 11 0 1 1-15-15ZM505 388m-7-7a11 11 0 1 1 15 15 11 11 0 1 1-15-15ZM556 465m-7-7a11 11 0 1 1 15 15 11 11 0 1 1-15-15ZM556 415m-7-7a11 11 0 1 1 15 15 11 11 0 1 1-15-15ZM556 365m-7-7a11 11 0 1 1 15 15 11 11 0 1 1-15-15ZM606 438m-7-7a11 11 0 1 1 15 15 11 11 0 1 1-15-15ZM606 388m-7-7a11 11 0 1 1 15 15 11 11 0 1 1-15-15ZM656 465m-7-7a11 11 0 1 1 15 15 11 11 0 1 1-15-15ZM656 415m-7-7a11 11 0 1 1 15 15 11 11 0 1 1-15-15ZM656 365m-7-7a11 11 0 1 1 15 15 11 11 0 1 1-15-15ZM706 438m-7-7a11 11 0 1 1 15 15 11 11 0 1 1-15-15ZM706 388m-7-7a11 11 0 1 1 15 15 11 11 0 1 1-15-15ZM756 465m-7-7a11 11 0 1 1 15 15 11 11 0 1 1-15-15ZM756 415m-7-7a11 11 0 1 1 15 15 11 11 0 1 1-15-15ZM756 365m-7-7a11 11 0 1 1 15 15 11 11 0 1 1-15-15ZM174 410m-54 0a54 54 0 1 1 108 0 54 54 0 1 1-108 0ZM183-21h782v-104H183zM966-76H183v27l782 85zM65-56v34h782v-105H65v36M65-22h782v-53H65zM956-46H71c-21 0-39 18-39 39v184c0 21 18 39 39 39h885c21 0 39-18 39-39v-184c0-22-18-39-39-39zM144 217h686c15 0 28-12 28-27v-207c0-15-12-28-28-28H59c-15 0-28 12-28 28v207c0 15 12 27 28 27h18M356 128m-7-7a11 11 0 1 1 15 15 11 11 0 1 1-15-15ZM356 78m-7-7a11 11 0 1 1 15 15 11 11 0 1 1-15-15ZM355 28m-7-7a11 11 0 1 1 15 15 11 11 0 1 1-15-15ZM406 101m-7-7a11 11 0 1 1 15 15 11 11 0 1 1-15-15ZM406 51m-7-7a11 11 0 1 1 15 15 11 11 0 1 1-15-15ZM456 128m-7-7a11 11 0 1 1 15 15 11 11 0 1 1-15-15ZM456 78m-7-7a11 11 0 1 1 15 15 11 11 0 1 1-15-15ZM456 29m-7-7a11 11 0 1 1 15 15 11 11 0 1 1-15-15ZM506 101m-7-7a11 11 0 1 1 15 15 11 11 0 1 1-15-15ZM506 51m-7-7a11 11 0 1 1 15 15 11 11 0 1 1-15-15ZM556 128m-7-7a11 11 0 1 1 15 15 11 11 0 1 1-15-15ZM556 78m-7-7a11 11 0 1 1 15 15 11 11 0 1 1-15-15ZM555 28m-7-7a11 11 0 1 1 15 15 11 11 0 1 1-15-15ZM606 101m-7-7a11 11 0 1 1 15 15 11 11 0 1 1-15-15ZM606 51m-7-7a11 11 0 1 1 15 15 11 11 0 1 1-15-15ZM656 128m-7-7a11 11 0 1 1 15 15 11 11 0 1 1-15-15ZM656 78m-7-7a11 11 0 1 1 15 15 11 11 0 1 1-15-15ZM656 28m-7-7a11 11 0 1 1 15 15 11 11 0 1 1-15-15ZM706 101m-7-7a11 11 0 1 1 15 15 11 11 0 1 1-15-15ZM706 51m-7-7a11 11 0 1 1 15 15 11 11 0 1 1-15-15ZM756 128m-7-7a11 11 0 1 1 15 15 11 11 0 1 1-15-15ZM756 78m-7-7a11 11 0 1 1 15 15 11 11 0 1 1-15-15ZM756 28m-7-7a11 11 0 1 1 15 15 11 11 0 1 1-15-15ZM174 74m-54 0a54 54 0 1 1 108 0 54 54 0 1 1-108 0Z"  horiz-adv-x="1024" />

    
    <glyph glyph-name="Click" unicode="&#60284;" d="M876 351v-341c0-74-60-136-136-136H515c-22 0-44 8-61 22-52 44-167 142-188 175v0c-6 8-10 19-10 31V307c61 0 110-49 110-110v-83h19V597c0 30 24 55 55 55s55-24 55-55v-235H515V439c0 30 24 55 55 55s55-24 55-55V359h21v39c0 28 23 51 51 51 28 0 51-23 51-51v-39h23c4 24 25 43 50 43 28 1 51-21 51-50zM430 746c-11 0-20 8-20 20v103c0 11 8 20 20 20s20-8 20-20v-103c0-11-8-20-20-20zM318 698c-5 0-10 2-14 6L230 777c-8 8-8 21 0 28 8 8 21 8 28 0l72-72c8-8 8-21 0-28-4-4-9-6-14-6zM272 583h-103c-11 0-20 8-20 20s8 20 20 20h103c11 0 20-8 20-20s-8-20-20-20zM696 588h-103c-11 0-20 8-20 20s8 20 20 20h103c11 0 20-8 20-20s-8-20-20-20zM248 398c-5 0-10 2-14 6-8 8-8 21 0 28l72 72c8 8 21 8 28 0 8-8 8-21 0-28L262 404c-3-4-8-6-14-6zM544 701c-5 0-10 2-14 6-8 8-8 21 0 28l72 72c8 8 21 8 28 0 8-8 8-21 0-28L559 707c-3-4-8-6-14-6z"  horiz-adv-x="1024" />

    
    <glyph glyph-name="Cash_2" unicode="&#60285;" d="M405-115l729 421c18 10 16 30-5 42l-307 178c-21 12-55 14-74 3L17 108c-18-10-16-30 5-42L331-112c21-12 55-14 74-3zM1126 348l-711-410c-18-10-52-9-74 3l-304 175 711 410c18 10 52 9 74-3l304-175zM102 157l-3-1M405-27l729 421c18 10 16 30-5 42L821 614c-21 12-55 14-74 3L17 196C-0 185 1 165 23 153l307-178c21-12 55-14 74-3zM1126 437l-711-410c-18-10-52-9-74 3l-304 175 711 410c18 10 52 9 74-3l304-175zM102 244l-3-1M405 60L1134 481c18 10 16 30-5 42l-307 178c-21 12-55 14-74 3L17 284c-18-10-16-30 5-42l307-178c21-13 55-14 74-3zM1126 525l-711-410c-18-10-52-9-74 3L35 294l711 410c18 10 52 9 74-3l304-175zM1134 568L405 147c-18-10-52-9-74 3L23 328C1 341-0 360 17 371l17 10 711 410c18 10 52 9 74-3l304-175 3-1c21-12 25-31 5-42zM1126 613l-711-410c-18-10-52-9-74 3l-304 175 711 410c18 10 52 9 74-3l304-175zM405 238l729 421c18 10 16 30-5 42L821 881C799 893 766 895 747 884L17 462c-18-10-16-30 5-42l307-178c21-12 55-14 74-3zM669 778c-148-85-486-281-544-315 20-11 20-30 0-42 26-15 187-107 213-122 20 11 53 11 72 0l606 350c-20 11-20 30 0 42-25 14-186 107-213 122-20-11-53-11-72 0L669 778zM669 492c-92-53-258 5-243 82 10 57 141 82 229 31 56-32 65-82 13-113zM731 632c-7 0-13 3-17 10-5 9-2 21 7 27L773 700c9 5 21 2 27-7 5-9 2-21-7-27l-52-30c-3-1-7-3-10-3zM336 405c-7 0-13 3-17 10-5 9-2 21 7 27l49 28c9 5 21 2 27-7 5-9 2-21-7-27l-49-28c-3-2-7-3-10-3zM1167 294v-253c-7-61-309-61-313 0V294c0 15 18 25 33 30 2 0 21 7 23 7C1000 356 1167 338 1167 294zM1167 294v-253c0-60-308-63-313 0V294c0 15 18 25 33 30C984 361 1167 340 1167 294zM1167 245V223C1105 181 915 181 853 223v21c10-17 68-37 156-37 89 0 147 20 157 37zM1167 191v-21c-61-42-251-42-313 0v21c10-17 68-37 156-37 89 0 147 20 157 37zM1167 137v-21C1105 73 914 73 853 115v22c10-17 68-37 156-37 89-0 147 19 157 36zM1167 84v-21C1106 20 915 20 853 62v21c10-17 68-37 156-37 91-0 147 20 157 37zM854 295a156 47 0 1 1 312 0 156 47 0 1 1-312 0ZM1167 560v-253c-7-60-308-62-313 0V560c0 15 18 25 33 30 2 0 21 7 23 7 88 24 256 7 256-37zM1167 560v-269c0-17-34-30-50-34C1023 230 856 247 853 290V560c0 15 18 25 33 30C984 627 1167 606 1167 560zM1167 512v-21c-61-42-251-42-313 0v21c10-17 68-37 156-37 89-0 147 20 157 37zM1167 458v-21c-61-42-251-42-313 0V458c10-17 68-37 156-37 89-0 147 20 157 37zM1167 404v-21C1105 340 914 340 853 382v22c10-17 68-37 156-37 89-0 147 19 157 36zM1167 350v-21C1106 286 915 286 853 328v21c10-17 68-37 156-37 91 0 147 21 157 37zM1167 301v-21c-60-42-251-42-313 0v21c10-17 68-37 156-37 91-0 147 21 157 37zM854 561a156 47 0 1 1 312 0 156 47 0 1 1-312 0ZM948 237v-260c-7-64-317-63-321 0V237c0 15 19 25 34 31 2 0 21 7 24 7 90 24 262 7 262-39zM948 237v-260c0-7-7-14-13-18C866-88 630-75 626-22V237c0 15 19 25 34 31 100 37 286 15 286-31zM948 187v-22c-63-43-258-43-321 0v22c10-17 69-38 161-38 91 0 150 21 160 38zM948 132v-22c-63-43-257-43-321 0v22c10-17 69-39 161-39 91 0 150 21 160 39zM948 77v-22c-63-43-259-43-321 0v22c10-17 70-39 161-39 91 0 150 21 160 39zM948 22v-22c-62-42-257-43-321 0v22c10-17 69-38 161-38 93 0 150 21 160 38zM626 238a161 49 0 1 1 322 0 161 49 0 1 1-322 0Z"  horiz-adv-x="1172" />

    
    <glyph glyph-name="Cloud_2" unicode="&#60286;" d="M1478 320c0-99-62-184-149-219-26-10-54-16-85-16H242c-73 0-137 33-181 84C27 210 6 262 6 320c0 21 2 42 8 62 27 99 118 172 226 172h0c31 130 148 227 289 227 58 0 113-17 160-46C749 828 852 890 969 890c181 0 327-146 327-327v-14c83-19 149-84 171-165 7-19 10-40 10-62zM1469 383c-19-72-73-129-141-156-26-10-54-16-85-16H242c-73 0-137 33-181 84-20 25-36 54-46 88 27 99 118 172 226 172h0c31 130 148 227 289 227 58 0 113-17 160-46C749 828 852 890 969 890c181 0 327-146 327-327v-14c85-19 150-83 173-165zM968 246l-264-363c-9-13-31-4-28 11l33 231-135-0c-13 0-21 15-13 26l28 38 236 324c9 13 31 4 29-12L817 270l137 1c3 0 6-0 9-2 7-4 10-15 3-22zM964 269l-236-324c-10-13-31-4-29 12l33 231-135-0c-3 0-6 0-9 2l236 324c9 13 31 4 29-12L816 270l137 1c4 0 7-0 10-2z"  horiz-adv-x="1479" />

    
    <glyph glyph-name="Calendar_2" unicode="&#60287;" d="M1075-125H9l195 895h1066zM1075-125H9l195 895h1066zM1231-125H239c-40 0-72 34-71 74l36 821h1066l-39-895zM1506-125H439L258 562l-1 3-52 203h1066l46-175 7-27 1-3zM1324 566H257l-52 203h1066l46-175zM563 765c0-71-38-126-86-126-11 0-20 9-20 20s9 20 20 20c21 0 45 35 45 84v4c-1 47-24 80-45 80-20 0-44-33-45-80h-41C392 838 429 891 476 891c47 0 85-53 86-122v-4zM1183 765c0-71-38-126-86-126-11 0-20 9-20 20s9 20 20 20c21 0 45 35 45 84v4c-1 47-24 80-45 80-20 0-44-33-45-80h-41C1011 838 1048 891 1096 891c47 0 85-53 86-122v-4zM612-47c-7 0-13 4-14 11l-145 517c-2 8 2 16 10 19 8 2 16-2 19-10l145-517c2-8-2-16-10-19-3-1-4-1-5-1zM786-47c-7 0-13 4-14 11L625 480c-2 8 2 16 10 19 8 2 16-2 19-10l145-516c2-8-2-16-10-19-2-1-3-1-5-1zM960-46c-7 0-13 4-14 11L800 481c-2 8 2 16 10 19 8 2 16-2 19-10l145-516c2-8-2-16-10-19-2-1-3-1-5-1zM1135-46c-7 0-13 4-14 11l-21 75c-2 8 2 16 10 19 8 2 16-2 19-10l21-75c2-8-2-16-10-19-2-1-4-1-5-1zM1093 104c-7 0-13 4-14 11l-102 364c-2 8 2 16 10 19 8 2 16-2 19-10l102-364c2-8-2-16-10-19-3-1-4-1-5-1zM1310-47c-7 0-13 4-14 11l-145 517c-2 8 2 16 10 19 8 2 16-2 19-10l145-517c2-8-2-16-10-19-2-1-4-1-5-1zM1282 411H924c-8 0-15 7-15 15s7 15 15 15H1282c8 0 15-7 15-15s-7-15-15-15zM864 411h-73c-8 0-15 7-15 15s7 15 15 15h73c8 0 15-7 15-15s-7-15-15-15zM716 411h-58c-8 0-15 7-15 15s7 15 15 15h58c8 0 15-7 15-15s-7-15-15-15zM585 411H392c-8 0-15 7-15 15s7 15 15 15h193c8 0 15-7 15-15s-7-15-15-15zM1314 284h-97c-8 0-15 7-15 15s7 15 15 15h97c8 0 15-7 15-15s-7-15-15-15zM1152 284h-36c-8 0-15 7-15 15s7 15 15 15h36c8 0 15-7 15-15s-7-15-15-15zM1042 284H867c-8 0-15 7-15 15s7 15 15 15h174c8 0 15-7 15-15s-7-15-15-15zM802 284H424c-8 0-15 7-15 15s7 15 15 15h378c8 0 15-7 15-15s-7-15-15-15zM1346 157H1024c-8 0-15 7-15 15s7 15 15 15h321c8 0 15-7 15-15s-6-15-14-15zM949 157H675c-8 0-15 7-15 15s7 15 15 15h274c8 0 15-7 15-15s-7-15-15-15zM601 157H456c-8 0-15 7-15 15s7 15 15 15h145c8 0 15-7 15-15s-7-15-15-15zM1378 30H488c-8 0-15 7-15 15s7 15 15 15h890c8 0 15-7 15-15s-7-15-15-15z"  horiz-adv-x="1510" />

    
    <glyph glyph-name="Cloud" unicode="&#60288;" d="M613-84c-11 0-20 9-20 20V337c0 11 9 20 20 20s20-9 20-20v-401c0-11-9-20-20-20zM1202-100H23c-11 0-20 9-20 20s9 20 20 20h1178c11 0 20-9 20-20s-9-20-20-20zM703-54v-42c0-15-12-28-28-28H550c-15 0-28 12-28 28v42c0 15 12 28 28 28h124c15-0 28-13 28-28zM703-54v-23c0-15-12-28-28-28H550c-15 0-28 12-28 28v23c0 15 12 28 28 28h124c15-0 28-13 28-28zM1213 424c0-81-51-151-122-179-21-8-44-13-69-13H205c-59 0-112 27-147 69-28 33-44 75-44 123 0 17 2 34 6 51 22 80 96 141 184 141h0C231 723 327 802 441 802c47 0 93-14 130-37C619 839 703 890 798 890c147 0 267-119 267-266v-11c67-16 122-68 140-135 4-17 6-33 6-52zM1206 475c-16-58-59-105-115-128-21-8-44-13-69-13H205c-59 0-112 27-147 69-17 20-30 45-37 71 22 80 96 141 184 141h0c25 106 121 185 236 185 47 0 93-14 130-37C620 839 704 890 799 890c147 0 267-119 267-266v-11c66-16 121-69 139-136z"  horiz-adv-x="1230" />

    
    <glyph glyph-name="Certificate" unicode="&#60289;" d="M735-61l-16 38c-4 11-18 16-29 12l-44-19c-14-5-28 7-23 22l75 194 145-55-74-192c-6-14-27-14-33 0zM884-114l16 38c4 11 18 16 29 12l44-17c14-5 28 8 22 22l-115 300-145-55 115-298c5-16 26-16 32-2zM735-61l-16 38c-4 11-18 16-29 12l-44-19c-14-5-28 7-23 22l75 194 145-55-74-192c-6-14-27-14-33 0zM884-114l16 38c4 11 18 16 29 12l44-17c14-5 28 8 22 22l-115 300-145-55 115-298c5-16 26-16 32-2zM998 189H43c-22 0-40 18-40 40v621C2 874 21 891 43 891h955c22 0 40-18 40-40v-621c0-21-17-40-40-40zM709 781H331c-7 0-14 6-14 14s6 14 14 14h377c7 0 14-6 14-14s-6-14-14-14zM626 720H415c-7 0-14 6-14 14s6 14 14 14h211c7 0 14-6 14-14s-6-14-14-14zM716 561H588c-7 0-14 6-14 14s6 14 14 14h128c7 0 14-6 14-14s-6-14-14-14zM489 561H84c-7 0-14 6-14 14s6 14 14 14h404c7 0 14-6 14-14s-6-14-14-14zM565 470h-54c-7 0-14 6-14 14s6 14 14 14h54c7 0 14-6 14-14s-6-14-14-14zM425 470H198c-7 0-14 6-14 14s6 14 14 14h227c7 0 14-6 14-14s-6-14-14-14zM115 470h-30c-7 0-14 6-14 14s6 14 14 14h30c7 0 14-6 14-14s-6-14-14-14zM105 273h-1c-7 0-13 7-12 15 2 31 25 60 55 70 30 9 66 0 86-24 1-2 3-4 4-6 4-6 11-14 14-13 3 0 7 7 10 13 2 4 6 11 10 16 10 12 27 17 43 14 16-2 29-13 36-28 2-7 0-15-7-18-7-2-15 0-18 7-2 5-8 10-14 11-6 1-13-1-17-6-2-2-4-7-7-11-6-10-14-25-31-26-19-2-31 12-40 24-1 2-2 3-4 5-13 15-37 22-56 16-19-6-34-25-36-45 0-8-5-14-12-14zM970 222c-1-8-6-14-14-21-4-4-9-7-14-12-8-7-14-15-17-26l-6-16c-5-14-16-21-32-22-6 0-12-0-18-0-9-0-19-2-27-8-7-4-14-9-22-14-2-1-4-2-7-2-7-2-15-1-23 2-5 2-11 6-16 10-7 4-14 8-21 10-5 1-12 2-18 2h-0c-5 0-12 0-17 1-11 1-19 7-24 17-2 5-5 12-7 18-4 14-12 24-24 33-4 4-10 7-14 12-9 8-11 19-8 31 1 5 2 11 4 16 4 13 4 26 0 40l-4 14c-4 15 0 28 12 38 3 2 7 6 10 8 11 7 19 19 23 31 2 6 4 12 7 19 5 11 15 16 28 17 7 0 14 0 21 1 12 0 23 5 33 12 3 2 7 4 12 7 13 8 26 8 40 0 5-3 10-7 16-10 9-6 19-9 31-9 8 0 16-0 24-2 9-1 17-7 21-16 2-4 4-8 5-12 4-18 16-32 31-43 4-3 9-7 12-12 5-5 7-12 7-23-0-1-0-4-1-7-0-4-2-8-3-13-3-10-4-21-2-32 0-3 1-6 2-9 1-4 2-9 3-14-1-6-1-11-2-16zM799 274m-87 0a87 87 0 1 1 175 0 87 87 0 1 1-175 0Z"  horiz-adv-x="1045" />

    
    <glyph glyph-name="Charts" unicode="&#60290;" d="M346 63H260c-9 0-17 8-17 17V644c0 9 8 17 17 17h86c9 0 17-8 17-17v-562c0-9-8-17-17-17zM579 63H492c-9 0-17 8-17 17V452c0 9 8 17 17 17h86c9 0 17-8 17-17v-371c0-9-8-17-17-17zM812 63H725c-9 0-17 8-17 17V540c0 9 8 17 17 17h86c9 0 17-8 17-17v-458c0-9-8-17-17-17zM1045 63h-86c-9 0-17 8-17 17V288c0 9 8 17 17 17h86c9 0 17-8 17-17v-207c0-9-8-17-17-17zM1003 508c-5 0-10 2-13 5l-218 246-215-168c-7-5-18-5-24 1L271 863c-7 7-6 19 0 25 7 7 19 6 25-0l248-257 216 169c7 5 18 5 25-2l229-259c6-7 5-19-1-25-4-2-8-4-13-4zM1012 498h-79c-10 0-18 8-18 18s8 18 18 18h61v61c0 10 8 18 18 18s18-8 18-18v-79c0-10-8-18-18-18zM1106-66l-1085 3c-10 0-18 8-18 18s8 18 18 18l1085-3c10 0 18-8 18-18s-8-18-18-18zM77-122c-10 0-18 8-18 18L61 841c0 10 8 18 18 18s18-8 18-18v-100L95-103c0-10-8-18-18-18z"  horiz-adv-x="1127" />

    
    <glyph glyph-name="Closed" unicode="&#60291;" d="M822 541l-362 256c2 12 2 25 0 38-10 42-54 68-96 57-42-10-68-54-57-96 3-13 10-25 19-35L126 366c-4-8-0-19 8-24 2-1 5-2 8-2 6 0 13 3 16 10l204 406c4 8 1 18-5 23-8 5-14 14-17 24-5 23 8 46 31 52 23 5 46-8 51-31 2-9 1-19-2-28-3-8-1-17 5-22l374-264c8-5 19-3 25 4 5 8 3 20-4 26zM380 819m-21-5a21 21 0 1 1 42 10 21 21 0 1 1-42-10ZM1017 85L174-125c-36-8-73 13-82 49L5 269c-8 36 13 73 49 82l843 210c36 8 73-13 82-49l86-345c8-36-13-73-49-82zM236 99c21 5 29 24 29 24l24-16s-10-28-47-37c-39-8-76 14-84 49-8 35 15 73 54 81 35 8 58-13 58-13l-15-26s-15 13-35 8c-20-4-32-23-27-43 4-20 23-32 43-27zM321 96L292 221l33 8 21-94 55 12 7-29zM491 137c-39-8-76 14-84 49-8 35 15 73 54 81 39 8 76-14 84-49 8-35-14-73-54-81z m-6 29c19 4 31 23 26 43-4 20-23 32-43 27-19-4-31-23-26-43 4-20 23-32 43-27zM554 250c-4 19 10 42 38 49 29 7 47-8 47-8l-14-24s-10 8-22 5c-8-2-12-8-10-13 3-16 59 5 69-38 5-21-9-45-40-52-32-7-54 10-54 10l14 24s13-10 29-7c9 2 14 10 13 16-4 18-59-3-70 39zM789 245l6-28L697 193l-28 125 96 21 6-28-62-14 4-19 48 10 5-27-48-10 5-21zM844 364c38 8 72-12 80-47 8-35-13-68-51-77l-48-10-28 125 48 10z m-7-33l14-64 13 2c16 3 29 20 24 39-4 19-20 29-39 24l-13-2z"  horiz-adv-x="1075" />

    
    <glyph glyph-name="Chat" unicode="&#60292;" d="M963 322v-7c-0-98-3-229-4-416 0-19-21-31-37-21l-176 107-13 8c-32 20-71 25-108 15-35-9-73-14-112-14-32 0-65 3-96 10-174 37-311 177-345 353C62 384 60 413 59 442 58 691 259 893 509 893c171 0 331-100 405-254 2-6 6-12 9-20 34-79 40-151 40-296zM928 431v-7c-0-93-3-215-4-389 0-31-35-51-62-34-166 101-148 90-166 100-32 20-71 25-108 15-35-9-73-14-112-14-32 0-65 3-96 10-136 30-249 121-309 244C63 385 60 414 60 442 59 691 260 894 509 894c171 0 331-100 405-254 10-54 12-116 12-207zM292 434m-66 0a66 66 0 1 1 133 0 66 66 0 1 1-133 0ZM510 434m-66 0a66 66 0 1 1 133 0 66 66 0 1 1-133 0ZM728 434m-66 0a66 66 0 1 1 133 0 66 66 0 1 1-133 0Z"  horiz-adv-x="1024" />

    
    <glyph glyph-name="Call_Out" unicode="&#60293;" d="M1003 844v-224c0-26-21-47-47-47-3 0-5 0-8 0-22 3-39 23-39 46V729L690 512c-9-9-21-13-34-13-3 0-5 0-8 0-9 1-17 6-25 13-18 18-18 48 0 67l197 197 20 20H730c-3 0-5 0-8 0-22 3-39 23-39 46C682 871 704 892 729 892H954c17 0 31-8 40-21 6-6 9-16 9-25zM953 3c-3-6-8-13-13-18-1-2-3-3-5-6-41-48-100-89-165-101-71-12-151 15-215 42-205 88-357 228-453 420-17 34-32 69-45 106-15 42-27 86-32 131-0 8-2 17-3 24-6 67 17 124 62 173 16 17 33 32 51 48 6 6 13 10 21 15 45 27 103 23 144-13 38-34 73-72 106-112 34-41 35-98 6-141-3-6-8-12-13-17-12-13-27-26-40-38-29-27-33-56-10-90 54-83 123-152 201-212 29-22 58-20 86 4 13 12 27 25 41 38 6 6 14 11 23 16 46 25 104 19 144-18 34-33 66-67 98-103 37-42 41-100 13-145zM933-20c-36-39-75-77-128-93-31-9-65-13-98-9-32 3-65 12-96 22-7 2-14 4-21 7-11 3-23 8-34 13-205 88-357 228-453 420-17 34-32 69-45 106-15 42-27 86-32 131 281-549 632-625 913-600zM409 572L152 841c45 27 103 23 144-13 38-34 73-72 106-112 34-41 35-98 6-142zM953 3l-256 267c46 25 104 19 144-18 34-33 66-67 98-103 37-42 41-100 13-145z"  horiz-adv-x="1024" />

    
    <glyph glyph-name="Cash" unicode="&#60294;" d="M421 297v-216c-6-52-263-52-267 0V297c0 12 16 21 28 25 2 0 17 6 19 6 77 21 219 6 219-32zM421 297v-216c0-51-263-54-267 0V297c0 12 16 21 28 25 84 31 239 12 239-25zM421 256v-19c-52-35-214-35-267 0v19c8-14 58-32 133-32 76 0 125 17 133 32zM421 210v-19c-52-35-214-35-267 0v19c8-14 58-32 133-32 76-0 125 16 133 32zM421 163v-19C369 108 206 108 154 144v19C162 149 213 131 288 131c76 0 125 17 133 32zM421 118v-19c-51-35-214-35-267 0v19C162 103 212 85 288 85c77 0 125 18 133 32zM154 298a133 41 0 1 1 267 0 133 41 0 1 1-267 0ZM423 480v-216c-6-52-263-52-267 0V480C155 493 171 501 184 506c2 0 17 6 19 6 77 21 219 6 219-32zM423 480v-216c0-51-263-54-267 0V480C155 493 171 501 184 506c84 31 239 12 239-25zM423 439v-19c-52-35-214-35-267 0v19C164 424 213 406 289 406c76 0 125 17 133 32zM423 393v-19c-52-35-214-35-267 0v19C164 378 213 361 289 361c76 0 125 17 133 32zM423 347v-19c-52-35-215-35-267 0v19C164 332 214 315 289 315c76 0 125 17 133 32zM423 301v-19c-51-35-214-35-267 0v19C164 286 213 269 289 269c77 0 125 17 133 32zM155 481a133 41 0 1 1 267 0 133 41 0 1 1-267 0ZM423 708v-216c-6-51-263-52-267 0V708c0 12 16 21 28 25 2 0 17 6 19 6 75 20 219 6 219-32zM423 708v-230c0-14-29-25-43-29-79-22-221-7-223 29V708c0 12 16 21 28 25 84 30 239 12 239-25zM423 665v-19c-52-35-214-35-267 0v19C164 651 213 633 289 633c76 0 125 17 133 32zM423 620v-19c-52-35-214-35-267 0v19C164 605 213 588 289 588c76 0 125 17 133 32zM423 574v-19c-52-35-215-35-267 0v19c8-14 58-32 133-32 76 0 125 17 133 32zM423 528v-19c-51-35-214-35-267 0v19C164 513 213 496 289 496c77 0 125 17 133 32zM423 486v-19c-51-35-214-35-267 0v19c8-14 58-32 133-32 77 0 125 17 133 32zM155 708a133 41 0 1 1 267 0 133 41 0 1 1-267 0ZM904 282c0-172-130-273-291-273-107 0-202 45-252 126-25 40-38 90-38 146 0 149 108 270 181 388 52 84 168 84 221 0 51-84 124-174 160-274 12-36 20-74 20-113zM904 282c0-172-130-273-291-273-64 0-123 16-171 45-27 16-12 58 19 55 19-2 38-3 58-3 185 0 339 105 364 290 12-36 20-74 20-113zM523 701c-37 40-74 100-96 136-4 8-6 18-3 27 3 9 9 16 18 19 89 35 136-83 333-21L689 702l-165-1zM948 579c-22 0-51 21-91 68-45 52-76 77-97 77-14 0-27-14-45-35-5-6-16-7-22-2-6 5-7 16-2 22 19 23 39 47 69 47h0c32 0 67-25 121-89 51-60 68-56 68-56 1 0 3 7 3 12 0 9 7 16 16 16 9 0 16-6 16-16 0-3-0-34-24-42-3-1-7-2-12-2zM802 600c-9 0-16 6-16 16 0 34-16 79-38 88-11 4-25-0-42-16-6-6-16-6-22 0-6 6-6 16 0 22 32 32 59 31 77 23 40-16 58-79 58-118 0-9-7-16-16-16zM610 170c-10 0-19 9-19 19v24c-17 0-35 5-51 12-10 4-15 16-11 27 3 9 11 14 20 14 3 0 6-0 9-2 9-4 25-9 45-9 26 0 45 15 45 36 0 19-12 32-45 46-39 15-76 35-76 81 0 38 25 67 66 75v25c0 10 9 19 19 19 10 0 19-9 19-19v-22c14-0 27-3 39-9 10-4 16-16 12-28-3-8-11-13-20-13-3 0-6 0-8 1-12 4-24 7-38 7-29 0-39-16-39-31 0-18 11-27 50-44 50-20 71-46 71-86 0-39-27-71-69-80v-26c0-9-9-18-20-18zM267 255v-213c-6-51-259-51-262 0V255c0 12 16 20 28 25 2 0 17 6 19 6C127 308 267 293 267 255zM267 255v-213c0-50-259-53-262 0V255c0 12 16 20 28 25C114 311 267 293 267 255zM267 215v-18c-51-35-211-35-262 0v18C12 200 61 183 136 183c74-0 123 16 131 31zM267 169v-18c-51-35-211-35-262 0v18C12 154 61 137 136 137c74 0 123 16 131 31zM267 124v-18c-51-35-212-35-262 0v19c8-14 57-32 131-32 74 0 123 16 131 31zM267 79v-18c-51-35-211-35-262 0v18C12 64 61 47 136 47c76 0 123 17 131 31zM4 256a131 40 0 1 1 262 0 131 40 0 1 1-262 0ZM267 392v-213c-6-51-259-51-262 0V392c0 12 16 20 28 25 2 0 17 6 19 6C127 444 267 429 267 392zM267 392v-213c0-50-259-53-262 0V392c0 12 16 20 28 25C114 448 267 430 267 392zM267 351v-18c-51-35-211-35-262 0v18c8-14 56-31 131-31 74 0 123 16 131 31zM267 306v-18c-51-35-211-35-262 0v18c8-14 56-31 131-31 74-0 123 16 131 31zM267 260v-18c-51-35-212-35-262 0V261c8-14 57-32 131-32 74-0 123 16 131 31zM267 215v-18C216 162 55 161 4 197V215c8-14 56-31 131-31 76-0 123 16 131 31zM4 393a131 40 0 1 1 262 0 131 40 0 1 1-262 0ZM1142 311v-219c-6-53-267-53-270 0V311C871 324 888 332 900 338c2 0 18 6 20 6 76 21 220 6 220-32zM1142 311v-219c0-24-57-37-119-39C950 50 873 63 871 92V311C871 324 887 332 900 338c84 31 242 12 242-26zM1142 269v-19c-53-36-217-36-271 0V269c8-14 58-32 135-32 77 0 127 18 136 32zM1142 222v-19C1089 166 924 166 871 203v19c8-14 58-32 135-32 77 0 127 18 136 32zM1142 176v-19c-53-36-218-36-271 0v19c8-14 59-32 135-32 77 0 127 18 136 32zM1142 130v-19C1089 74 924 74 871 111v19c8-14 58-32 135-32 78 0 127 18 136 32zM871 312a135 41 0 1 1 270 0 135 41 0 1 1-270 0ZM1030 97c0-16-3-31-8-45-71-2-149 10-151 39v129c9 2 19 3 30 3 71 0 129-57 129-128zM1142 500v-219c-6-53-267-53-270 0V500C871 513 888 522 900 527c2 0 18 6 20 6 76 20 220 5 220-32zM1142 500v-219c0-51-267-55-270 0V500C871 513 888 522 900 527c83 30 241 12 241-26zM1142 458v-19c-53-36-217-36-271 0v19c8-14 58-32 135-32 77 0 127 18 136 32zM1142 411v-19C1089 355 924 355 871 392v19c8-14 58-32 135-32 77 0 127 18 136 32zM1142 365v-19c-53-36-218-36-271 0v19c8-14 59-32 135-32 77 0 127 17 136 32zM1142 319V299C1089 263 924 263 871 299v19c8-14 58-32 135-32 78 0 127 18 136 32zM871 501a135 41 0 1 1 270 0 135 41 0 1 1-270 0ZM674-28v-42c-6-64-320-64-324 0V-28c0 16 19 25 34 31 3 0 21 7 24 7C502 35 674 17 674-28zM674-28v-42c0-62-320-65-324 0V-28c0 16 19 25 34 31C485 40 674 18 674-28zM349-27a162 49 0 1 1 325 0 162 49 0 1 1-325 0ZM829-78l-21-37C769-167 498-11 526 46l21 37c7 13 29 12 45 9 3-0 22-3 25-5 92-25 233-127 210-167zM829-78l-21-37C776-170 497-11 526 46l21 37c7 13 29 12 45 9 106-18 259-131 235-172zM663-40a49 162 59 1 1 49 85 49 162 59 1 1-49-85ZM866 108m-128 0a128 128 0 1 1 256 0 128 128 0 1 1-256 0Z"  horiz-adv-x="1146" />

    
    <glyph glyph-name="CD" unicode="&#60295;" d="M10 479L239 857c14 21 39 35 65 35h498c27 0 53-14 67-38l209-377M193 108h-146c-23 0-43 19-43 43V455c0 23 19 43 43 43h998c23 0 43-19 43-43v-304c0-23-19-43-43-43h-146M943 399m-27 0a27 27 0 1 1 55 0 27 27 0 1 1-55 0ZM788 300c68-44 110-108 110-178 0-136-157-246-353-246-195 0-353 110-353 246 0 68 39 129 103 174M438 138a107 80 0 1 1 215 0 107 80 0 1 1-215 0ZM939 277H151c-12 0-22 10-22 22 0 12 10 22 22 22h788c12 0 22-10 22-22 0-12-10-22-22-22z"  horiz-adv-x="1089" />

    
    <glyph glyph-name="Coffee" unicode="&#60296;" d="M761 396V356c0-8-6-15-15-15h-20l-16-131h5c8 0 16-8 15-17l-23-194c-1-7-7-12-15-12h-9l-10-83c-2-16-16-29-32-29H388c-16 0-30 12-32 29l-10 83h-9c-7 0-14 6-15 13l-23 193c-1 8 6 17 15 17h5L301 340h-20c-8 0-15 6-15 15v39c0 8 6 15 15 15h21l15 34c5 12 18 20 32 20H675c13 0 25-8 32-20l15-34H744c10 0 17-6 17-15zM761 396V356c0-8-6-15-15-15h-20l-16-131h5c8 0 16-8 15-17l-23-194c-1-7-7-12-15-12h-9l-10-83c-2-16-16-29-32-29H388c-16 0-30 12-32 29l-10 83h-9c-7 0-14 6-15 13l-23 193c-1 8 6 17 15 17h5L301 340h-20c-8 0-15 6-15 15v39c0 8 6 15 15 15h21l15 34c5 12 18 20 32 20H675c13 0 25-8 32-20l15-34H744c10 0 17-6 17-15zM726 408H302L318 445c5 12 18 20 32 20h326c13 0 26-8 32-20l16-36zM726 344l-53-443c-2-16-16-28-32-28h-109l67 471h128zM731 192l-23-193v-0c-1-7-7-12-15-12h-354c-7 0-14 6-15 13l-23 193c-1 8 6 17 15 17h402c9 0 16-7 15-17zM731 192l-23-193v-0c-1-7-7-12-15-12h-354c-7 0-14 6-15 13l-23 193c-1 8 6 17 15 17h402c9 0 16-7 15-17zM733 209l-27-224H606l36 224zM511 100c7-20 15-40 8-68-0-1-0-2 0-4-30 0-54 31-54 69 0 31 16 58 39 66-8-24-0-44 6-63zM573 97c0-28-13-53-32-64 6 30-2 53-10 74-7 19-12 35-5 55 0 1 0 2 0 3 26-4 47-33 47-68zM749 340H279c-6 0-12 5-12 12v45c0 6 5 12 12 12h469c6 0 12-5 12-12v-45c0-6-5-12-12-12zM631 494c-4 0-7 2-8 5-2 4-0 10 4 13 28 13 34 55 23 88-6 17-15 33-23 50-9 17-19 34-25 52-21 64-1 139 49 184 4 3 10 3 14-0s3-10-0-14c-44-39-62-105-43-162 6-17 14-32 23-49s19-34 25-53c13-40 6-94-33-113-2 0-4-0-5-0zM605 561h-2c-5 1-8 6-7 12 2 12 2 27-2 41-4 13-11 26-19 40-7 13-15 27-20 43-5 17-8 34-6 53 0 5 5 10 10 9 5-0 10-5 9-10-0-15 0-30 5-45 4-13 11-26 19-39 7-13 15-27 20-43 5-17 6-36 2-52-1-5-5-8-10-8z"  horiz-adv-x="1024" />

    
    <glyph glyph-name="Benchpress" unicode="&#60297;" d="M261-125c-12 0-21 9-21 21V133c0 12 9 21 21 21 12 0 21-9 21-21V-103c-0-12-9-21-21-21zM955-125c-12 0-21 9-21 21V133c0 12 9 21 21 21 12 0 21-9 21-21V-103c0-12-9-21-21-21zM387-18c-12 0-21 9-21 21V651c0 12 9 21 21 21 12 0 21-9 21-21v-648c0-12-9-21-21-21zM794 354V650c0 12 9 21 21 21 12 0 21-9 21-21v-648c0-12-9-21-21-21-12 0-21 9-21 21V257M621 687h545c12 0 20-9 20-21 0-12-9-21-20-21H27C15 644 6 654 6 666c0 12 9 21 20 21h356M1097 118h-959c-12 0-21 9-21 21 0 12 9 21 21 21h960c12 0 21-9 21-21-0-12-10-21-22-21zM237 847v-346c0-22-16-41-37-46-3-0-6-0-10-0-26 0-47 20-47 47V847c0 26 21 47 47 47 12 0 24-5 33-13 9-8 14-20 14-33zM1048 847v-346c0-26-20-47-47-47-26 0-47 20-47 47V847c0 26 20 47 47 47 12 0 24-5 33-13 8-8 13-20 13-33zM1144 756v-164c0-26-20-47-47-47-12 0-24 5-33 13-7 7-12 16-13 26-0 2-0 4-0 7V756c0 2 0 4 0 7 3 23 23 41 46 41 12 0 24-5 33-13 8-9 14-21 14-34zM1048 847v-306c0-26-20-47-47-47-26 0-47 21-47 47V847c0 26 20 47 47 47 12 0 24-5 33-13 8-8 13-20 13-33zM1144 756v-123c0-26-20-47-47-47-12 0-24 5-33 13-7 7-12 16-13 26-0 2-0 4-0 7V797c0 2 0 4 0 7v-40c3 23 23 41 46 41 12 0 24-5 33-13 8-10 14-22 14-35zM142 756v-164c0-26-21-47-48-47-4 0-8 0-12 1-20 5-35 24-35 45V756c0 26 21 47 48 47 13 0 25-5 34-13 8-8 13-20 13-33zM237 847v-291c0-22-16-41-37-46-3-0-6-0-10-0-26 0-47 20-47 47V847c0 26 21 47 47 47 12 0 24-5 33-13 9-8 14-20 14-33zM142 756v-108c0-26-21-47-48-47-4 0-8 0-12 1-20 5-35 24-35 45V756c0 26 21 47 48 47 13 0 25-5 34-13 8-8 13-20 13-33z"  horiz-adv-x="1193" />

    
    <glyph glyph-name="Code_2" unicode="&#60298;" d="M7 823V-60c0-36 28-64 64-64h1273c36 0 64 29 64 64V820c0 37-30 68-68 68H71L7 823zM992 725H6V823C6 859 35 888 71 888h1273c36 0 64-28 64-64V725h-416zM108 805m-27 0a27 27 0 1 1 54 0 27 27 0 1 1-54 0ZM190 805m-27 0a27 27 0 1 1 54 0 27 27 0 1 1-54 0ZM273 805m-27 0a27 27 0 1 1 54 0 27 27 0 1 1-54 0ZM649 375l-250 1c-10 0-18 8-18 18s8 18 18 18l250-1c10 0 18-8 18-18s-8-18-18-18zM1244 375l-289 1c-10 0-18 8-18 18s8 18 18 18l289-1c10 0 18-8 18-18s-8-18-18-18zM1052 12L763 14c-10 0-18 8-18 18s8 18 18 18l289-1c10 0 18-8 18-18s-8-18-18-18zM874 375l-140 1c-10 0-18 8-18 18s8 18 18 18l140-1c10 0 18-8 18-18s-8-18-18-18zM297 377l-103 0c-10 0-18 8-18 18s8 18 18 18l103-0c10 0 18-8 18-18s-8-18-18-18zM698 255l-150 1c-10 0-18 8-18 18s8 18 18 18l150-1c10 0 18-8 18-18 0-11-8-18-18-18zM1166 252l-384 4c-10 0-18 8-18 18s8 18 18 18l384-4c10 0 18-8 18-18s-8-18-18-18zM447 256l-252 0c-10 0-18 8-18 18s8 18 18 18l252-0c10 0 18-8 18-18s-8-18-18-18zM897 133l-349 1c-10 0-18 8-18 18s8 18 18 18l349-1c10 0 18-8 18-18s-8-18-18-18zM447 136L195 137c-10 0-18 8-18 18s8 18 18 18l252-0c10 0 18-8 18-18 0-11-8-18-18-18zM665 14l-192 0c-10 0-18 8-18 18s8 18 18 18l192-0c10 0 18-8 18-18s-8-18-18-18zM350 15H195c-10 0-18 8-18 18s8 18 18 18H350c10 0 18-8 18-18s-8-18-18-18zM903 561L194 564c-10 0-18 8-18 18s8 18 18 18l709-2c10 0 18-8 18-18s-8-18-18-18z"  horiz-adv-x="1412" />

    
    <glyph glyph-name="Color_Picker" unicode="&#60299;" d="M244-99c-31-30-85-29-116 0-2 2-4 5-7 8-7 9-13 20-16 31-6 26-0 56 19 79 17 19 35 37 52 55 4 4 10 4 15 0 21-20 40-37 57-57 1-1 2-2 3-4 4-6 8-13 11-19 14-30 6-68-19-94zM228-68c-31-30-85-29-116 0-2 2-4 5-7 8l-0 0c-6 26-0 56 19 79 17 19 35 37 52 55 4 4 10 4 15 0 21-20 40-37 57-57 1-1 2-2 3-4 8-29-0-61-24-83zM713 571l-192-196-210-215c-5-5-12-9-19-11l-86-24c-19-5-38 13-32 32L194 243c2 7 6 14 11 19l112 115 290 296 104-103zM520 374l-210-215c-5-5-12-9-19-11l-86-24c-19-5-38 13-32 32l24 86c2 7 6 14 11 19l112 115c8 3 17 4 27 4l174-7zM744 533L572 706c-17 17-17 46 0 63 17 17 46 17 63 0l172-172c17-17 17-46 0-63-17-17-46-17-63 0zM779 625L659 746 777 865c32 32 87 32 120 0 32-32 32-87 0-120L779 625z"  horiz-adv-x="1024" />

    
    <glyph glyph-name="Charger" unicode="&#60300;" d="M541-125c-158 0-288 129-288 288 0 158 129 288 288 288 158 0 288-129 288-288-0-159-129-288-288-288z m0 525c-130 0-238-106-238-238 0-131 106-238 238-238 130 0 238 106 238 238 0 131-107 238-238 238zM541-126c-226 0-410 183-410 410V394c0 13 11 25 25 25s25-11 25-25v-110c0-198 161-360 360-360 198 0 360 161 360 360v111c0 13 11 25 25 25s25-11 25-25v-111c0-226-184-410-410-410zM273 394H38C20 394 6 409 6 426V708c0 17 14 32 32 32h235c17 0 32-14 32-32v-282c0-17-14-32-32-32zM50 742V868C50 881 60 891 73 891h165c12 0 22-9 22-22v-127M1013 395H842c-12 0-22 10-22 22V622c0 12 10 22 22 22h170c12 0 22-10 22-22v-204c0-12-9-22-22-22zM851 646V735c0 9 7 16 16 16h119c9 0 16-7 16-16v-88M625 181L522 39c-4-5-12-2-11 4l13 90h-52c-5 0-8 6-5 10l11 16 91 126c4 5 12 2 11-4l-13-91 53 0c1 0 2-0 3-1 2-2 4-6 2-9zM116 776c-7 0-14 6-14 14V838c0 7 6 14 14 14 8 0 14-6 14-14v-47c0-8-6-14-14-14zM192 776c-7 0-14 6-14 14V838c0 7 6 14 14 14 8 0 14-6 14-14v-47c0-8-6-14-14-14z"  horiz-adv-x="1037" />

    
    <glyph glyph-name="Contacts" unicode="&#60301;" d="M927 512H777V761h150c7 0 12-5 12-12v-224c0-6-5-12-12-12zM927 251H777V500h150c7 0 12-5 12-12v-224c0-7-5-12-12-12zM927-9H777V239h150c7 0 12-5 12-12v-224c0-7-5-12-12-12zM882 865v-969c0-12-10-23-23-23H118c-17 0-32 14-32 32V856C86 874 100 889 118 889h740c12-0 23-11 23-24zM218 888v-1016H118c-17 0-32 14-32 32V856C85 874 99 889 118 889h100V888zM543 162c-118 0-201 78-201 192 0 112 83 197 196 197 103 0 180-71 180-164 0-73-41-130-94-130-24 0-43 11-47 30l-1 6-3-4c-14-19-36-32-58-32C467 256 437 290 437 341c0 65 44 116 99 116 19 0 44-9 51-32l5 0 2 10c1 7 8 13 16 13 4 0 9-2 12-6 2-3 4-9 3-14l-22-105c-1-5-1-9-1-14 0-14 7-24 22-24 30 0 58 47 58 100 0 78-60 133-146 133-94 0-160-68-160-166 0-95 66-160 165-160 34 0 66 9 93 27 2 1 4 2 7 2 4 0 9-2 12-5 2-3 3-7 2-11-0-3-2-7-5-9-30-20-73-33-111-33z m-7 261c-39 0-64-40-64-78 0-39 15-59 46-59 35 0 61 35 63 86 0 32-17 51-45 51z"  horiz-adv-x="1024" />

    
    <glyph glyph-name="Compose_email" unicode="&#60302;" d="M472 885C459 896 440 896 428 885 352 822 7 533 7 533v-506c0-11 10-21 21-21h842c11 0 21 10 21 21V533C882 543 468 889 472 885zM719 787c29 0 52-23 52-52v-277L440 258 129 454V734c0 29 23 52 52 52h537zM657 646H228c-6 0-12 5-12 12s5 12 12 12h428c6 0 12-5 12-12s-5-12-12-12zM471 532h-243c-6 0-12 5-12 12s5 12 12 12h243c6 0 12-5 12-12s-5-12-12-12zM893 533V23c0-9-5-16-13-19-2-0-5-1-7-1H27c-11 0-20 9-20 20V532l370-231c36-23 83-23 121-1l394 234zM876 233v-228c-2-0-5-1-7-1H612c-5 16-7 34-7 52 0 106 86 193 193 193 28 0 54-5 78-15zM679-40c-20 30-31 67-31 105 0 106 86 193 193 193s193-86 193-193-86-193-193-193c-67 0-126 35-161 87M937 78l-57 57c-6 6-18 6-26 0-6-6-6-18 0-26l26-26H757c-10 0-18-8-18-18 0-10 8-18 18-18h123l-26-26c-6-6-6-18 0-26 3-3 8-5 12-5 5 0 9 1 12 5l57 57c3 3 5 8 5 12s-0 10-4 14z"  horiz-adv-x="1040" />

    
    <glyph glyph-name="Cog_Wheel" unicode="&#60303;" d="M975 482l-39 5c-18 2-34 15-40 33-4 13-9 25-16 38-8 16-6 36 4 52l23 32c14 20 13 48-4 66l-66 66c-18 17-45 19-66 4l-32-23c-15-11-35-13-52-4-12 5-25 11-38 16-18 6-30 21-33 40l-5 39C604 873 583 891 557 891H463c-25 0-46-18-50-43l-5-39c-2-18-15-34-33-40-13-4-25-9-38-16-17-8-36-6-52 4l-32 23c-20 14-48 13-66-4l-66-66c-18-18-20-45-4-66l23-32c11-15 13-35 4-52-5-12-11-25-16-38-6-18-21-30-40-33l-39-5C22 478 4 457 4 432v-94c0-25 18-46 43-50l39-5c18-2 34-15 40-33 4-13 9-25 16-38 8-16 6-36-4-52l-23-32c-15-20-13-48 4-66l66-66c18-17 45-20 66-4l32 23c15 11 34 13 52 4 12-6 25-11 38-16 17-6 30-21 33-40l5-39c3-25 25-43 50-43h94c25 0 46 18 50 43l5 39c2 18 15 34 33 40 13 4 25 9 38 16 16 8 36 6 52-4l32-23c20-15 48-13 66 4l66 66c17 18 19 45 4 66l-23 32c-11 15-13 35-4 52 6 12 11 25 16 38 6 17 21 30 40 33l39 5c25 3 43 25 43 50V432c0 25-18 45-43 50zM512 208c-97 0-176 79-176 176 0 97 78 176 176 176s176-79 176-176c0-97-79-176-176-176zM975 482l-39 5c-18 2-34 15-40 33-4 13-9 25-16 38-8 16-6 36 4 52l23 32c14 20 13 48-4 66l-66 66c-18 17-45 19-66 4l-32-23c-15-11-35-13-52-4-12 5-25 11-38 16-18 6-30 21-33 40l-5 39C604 873 583 891 557 891H463c-25 0-46-18-50-43l-5-39c-2-18-15-34-33-40-13-4-25-9-38-16-17-8-36-6-52 4l-32 23c-20 14-48 13-66-4l-66-66c-18-18-20-45-4-66l23-32c11-15 13-35 4-52-5-12-11-25-16-38-6-18-21-30-40-33l-39-5C22 478 4 457 4 432v-94c0-25 18-46 43-50l39-5c18-2 34-15 40-33 4-13 9-25 16-38 8-16 6-36-4-52l-23-32c-15-20-13-48 4-66l66-66c18-17 45-20 66-4l32 23c15 11 34 13 52 4 12-6 25-11 38-16 17-6 30-21 33-40l5-39c3-25 25-43 50-43h94c25 0 46 18 50 43l5 39c2 18 15 34 33 40 13 4 25 9 38 16 16 8 36 6 52-4l32-23c20-15 48-13 66 4l66 66c17 18 19 45 4 66l-23 32c-11 15-13 35-4 52 6 12 11 25 16 38 6 17 21 30 40 33l39 5c25 3 43 25 43 50V432c0 25-18 45-43 50zM512 208c-97 0-176 79-176 176 0 97 78 176 176 176s176-79 176-176c0-97-79-176-176-176z"  horiz-adv-x="1024" />

    
    <glyph glyph-name="Credit_Card" unicode="&#60304;" d="M1549 807v-851c0-42-34-78-78-78H78c-42 0-78 34-78 78V807C0 850 34 886 78 886H1470c43 0 78-34 78-78zM1 674h1547v-187H1zM897 160H754c-15 0-27 11-27 27s11 27 27 27h142c15 0 27-11 27-27s-11-27-27-27zM667 160H191c-15 0-27 11-27 27s11 27 27 27h476c15 0 27-11 27-27s-11-27-27-27zM405 51H191c-15 0-27 11-27 27s11 27 27 27h213c15 0 27-11 27-27s-11-27-27-27zM1322 80m-102 0a102 102 0 1 1 204 0 102 102 0 1 1-204 0ZM1186 80m-102 0a102 102 0 1 1 204 0 102 102 0 1 1-204 0Z"  horiz-adv-x="1557" />

    
    <glyph glyph-name="Checkout" unicode="&#60305;" d="M1468-45L1182-123l-79 14-689 125 57 521 34 317 80 3 629 31 29-8 15-5L1381 893zM1109 486v-571c0-8-2-16-6-24l-689 126 57 521h585c29-1 52-24 52-52zM624 755a45 39 90 1 1 78 0 45 39 90 1 1-78 0ZM930 764a45 39 90 1 1 78 0 45 39 90 1 1-78 0ZM1468-45l-206 119s-16 702-16 808l15-4L1381 893l86-939zM1261 73l-2-4-77-193L1215 890l29-8 15-5zM802 437h-5c-104 6-162 127-154 320 0 11 10 20 22 20s21-10 20-22c-7-164 38-272 115-277 57-3 129 103 148 288 1 11 11 20 23 19 11-1 20-11 19-23-21-192-99-325-188-325zM1039 539v-571c0-28-23-52-52-52H52c-28 0-52 23-52 52V539c0 28 23 52 52 52h934c29 0 52-24 52-52zM1 449h1038v-125H1zM602 105H506c-10 0-17 8-17 17 0 10 8 17 17 17h96c10 0 17-8 17-17 0-10-8-17-17-17zM448 105H128c-10 0-17 8-17 17 0 10 8 17 17 17h319c10 0 17-8 17-17 0-10-8-17-17-17zM272 31H128c-10 0-17 8-17 17 0 9 8 17 17 17h143c10 0 17-8 17-17 0-9-8-17-17-17zM887 50m-68 0a68 68 0 1 1 137 0 68 68 0 1 1-137 0ZM795 50m-68 0a68 68 0 1 1 137 0 68 68 0 1 1-137 0Z"  horiz-adv-x="1477" />

    
    <glyph glyph-name="Contact" unicode="&#60306;" d="M788 431h342c40 0 73 32 73 73V817c0 40-32 73-73 73H659c-40 0-73-32-73-73v-436c0-17 20-27 34-16l54 65h113zM864 15c-2-5-5-12-9-17-1-1-2-4-4-5-25-39-57-75-100-96-47-23-102-20-154-13-17 2-35 6-53 10-182 46-327 142-433 289C90 209 73 236 56 265c-18 33-34 68-44 104-2 6-4 13-5 20C-8 445 4 496 35 543c11 16 23 31 35 47 4 5 9 11 15 15 34 28 83 33 121 7 35-24 70-51 103-79 34-30 42-77 24-117-2-5-5-11-8-17-8-13-18-25-28-38-21-27-19-52 3-77 56-61 122-110 195-149 26-14 52-8 71 15 9 12 19 25 29 37 4 6 11 12 17 17 34 27 84 30 122 3 32-22 65-47 95-73 37-30 48-78 30-118zM753 654m-41 0a41 41 0 1 1 82 0 41 41 0 1 1-82 0ZM894 654m-41 0a41 41 0 1 1 82 0 41 41 0 1 1-82 0ZM1063 623c-7-6-17-10-27-10-22 0-41 18-41 41s18 41 41 41 41-18 41-41c0-12-5-23-13-30M851-7c-4-0-13-18-15-21-5-8-12-16-18-23-13-14-26-27-43-38-69-43-155-34-231-15-182 46-327 142-433 289-18 26-35 53-52 82-18 33-34 68-44 104 307-418 608-434 838-377zM338 416L88 605c34 28 83 33 121 7 35-24 70-51 103-79 34-30 42-77 24-117zM864 15L616 204c34 27 84 30 122 3 32-22 65-47 95-73 36-30 47-78 30-118z"  horiz-adv-x="1210" />

    
    <glyph glyph-name="Coupon" unicode="&#60307;" d="M726 785l137-31c48-10 85-48 96-96l60-263c8-25 1-55-17-74l-330-330M607-75l396 396c19 19 25 48 17 74L961 659c-10 48-48 85-96 96l-264 58c-25 8-55 1-74-17L16 286c-20-20-20-54 0-74l263-263c2-2 5-4 7-6 91-84 230-87 325-9M785 579m-55-55a78 78 0 1 1 111 111 78 78 0 1 1-111-111ZM1059 572c-18-18-38-33-60-46-2-1-3-2-6-3l-12 54c14 9 28 19 41 32 33 33 55 74 61 113 5 37-3 69-24 90-46 46-138 29-204-36-5-5-10-10-15-16-24-29-40-63-45-97 0-2-0-4-0-6-3-34 5-64 25-84 6-6 15-12 24-16 3-1 7-3 11-6 1-0 3-2 4-3-3-8-9-16-16-23-6-6-14-11-22-15h-0c-14 6-28 16-39 27-27 27-41 64-42 106 0 9 0 19 2 30 5 35 19 70 41 102 9 14 21 28 34 41C901 903 1027 920 1095 853c68-67 51-193-35-280zM618-63c-8-7-17-14-27-20-84-55-194-53-276 3-9 6-18 13-26 21 1 0 3 0 5 0 45-1 103 12 142 36 19 12 45 12 64-2 38-31 84-39 119-39zM534 583c-43 0-78-35-78-78 0-43 35-78 78-78 43 0 78 35 78 78 0 43-35 78-78 78zM534 468c-19 0-36 16-36 36 0 19 16 36 36 36 19 0 36-16 36-36 0-20-16-36-36-36zM735 300H341c-13 0-25 11-25 25 0 13 11 25 25 25h393c13 0 25-11 25-25 0-13-10-25-25-25zM532 232c-43 0-78-35-78-78 0-43 35-78 78-78 43 0 78 35 78 78 0 43-35 78-78 78z m0-115c-19 0-36 16-36 36 0 19 16 36 36 36 19 0 36-16 36-36 0-19-16-36-36-36z"  horiz-adv-x="1138" />

    
    <glyph glyph-name="Coupon_2" unicode="&#60308;" d="M727 785l137-31c48-10 85-48 96-96l60-263c8-25 1-55-17-74l-330-330M607-75l396 396c19 19 25 48 17 74L961 659c-10 48-48 85-96 96l-264 58c-25 8-55 1-74-17L16 286c-20-20-20-54 0-74l263-263c2-2 5-4 7-6 91-84 230-87 325-9M785 579m-55-55a78 78 0 1 1 111 111 78 78 0 1 1-111-111ZM1059 572c-18-18-38-33-60-46-2-1-3-2-6-3l-12 54c14 9 28 19 41 32 33 33 55 74 61 113 5 37-3 69-24 90-46 46-138 29-204-36-5-5-10-10-15-16-24-29-40-63-45-97 0-2-0-4-0-6-3-34 5-64 25-84 6-6 15-12 24-16 3-1 7-3 11-6 1-0 3-2 4-3-3-8-9-16-16-23-6-6-14-11-22-15h-0c-14 6-28 16-39 27-27 27-41 64-42 106 0 9 0 19 2 30 5 35 19 70 41 102 9 14 21 28 34 41C902 903 1028 920 1095 853c67-67 51-193-35-280zM618-63c-8-7-17-14-27-20-84-55-194-53-276 3-9 6-18 13-26 21 1 0 3 0 5 0 45-1 103 12 142 36 19 12 45 12 64-2 38-31 84-39 119-39zM661 458l-40-119c-0-3-0-6 1-8l75-100c4-6 0-15-7-15l-126 1c-3 0-6-1-7-3l-72-103c-4-6-14-4-16 2l-37 120c-0 3-3 5-6 6l-120 37c-7 2-9 12-2 16l103 72c2 1 3 4 3 7l-1 126c0 7 9 12 15 7l100-75c2-1 6-2 8-1L649 470c6 3 13-4 11-11z"  horiz-adv-x="1138" />

    
    <glyph glyph-name="Code" unicode="&#60309;" d="M1316-28H146c-26 0-48 22-48 48V844c0 26 22 48 48 48h1170c26 0 48-22 48-48v-823c0-27-22-48-48-48zM1 733V-54c0-36 28-65 65-65h1122c36 0 65 29 65 65V729c0 38-30 68-68 68H66L1 733zM834 633H1V733c0 36 28 65 65 65h1122c36 0 65-28 65-65v-99H834zM103 715m-27 0a27 27 0 1 1 55 0 27 27 0 1 1-55 0ZM186 715m-27 0a27 27 0 1 1 55 0 27 27 0 1 1-55 0ZM269 715m-27 0a27 27 0 1 1 55 0 27 27 0 1 1-55 0ZM455 89c-10 0-20 3-26 12l-114 135a34 34 0 0 0 0 45l114 135c12 15 35 17 49 3 15-12 17-35 3-49l-95-112 95-112c12-15 10-37-3-49-6-6-15-8-22-8zM785 89c-7 0-16 2-22 8-15 12-17 35-3 49l95 112-95 112c-12 15-10 37 3 49 15 12 37 10 49-3l114-135c11-13 11-32 0-45L812 101c-6-8-16-12-26-12zM570 78c-3 0-7 0-11 1-18 6-28 26-22 44l100 285c6 18 26 28 44 22 18-6 28-26 22-44L603 102c-4-14-19-23-33-23z"  horiz-adv-x="1368" />

    
    <glyph glyph-name="Currecny_down" unicode="&#60310;" d="M343 337v-233l62-0c9 0 15-11 9-19l-141-198c-7-10-23-10-31 0L103 84c-5 8 0 19 10 19h48V530M540 517m-378 0a378 378 0 1 1 756 0 378 378 0 1 1-756 0ZM540 517m-280 0a280 280 0 1 1 560 0 280 280 0 1 1-560 0ZM532 318c-14 0-25 11-25 25v21c-17 1-35 5-50 13-12 5-19 20-14 34 3 11 14 18 25 18 3 0 7-0 11-2 10-4 25-10 46-10 25 0 43 13 43 33 0 13-5 28-44 44C480 513 441 536 441 586c0 40 26 72 69 83v23c0 14 11 25 25 25s25-11 25-25v-20c14-1 26-4 38-9 13-5 20-20 14-34-3-10-14-17-25-17-3 0-7 0-10 2-11 5-24 7-38 7-27 0-37-14-37-28 0-14 7-24 49-41 36-14 77-38 77-94 0-42-28-76-71-86v-24c-0-14-11-25-26-25z"  horiz-adv-x="1024" />

    
    <glyph glyph-name="Coins_2" unicode="&#60311;" d="M555 792l-72 65c-78 68-225 31-328-84-103-116-124-267-46-336l71-63c78-69 225-31 329 84 103 116 124 266 46 336zM108 435a282 189 48 1 1 376 421 282 189 48 1 1-376-421ZM198 523c-5 0-10 2-14 5-5 4-7 10-7 17 0 6 2 12 7 17l6 7c-13 19-14 39-13 50 0 11 9 23 21 25 1 0 3 0 5 0 5 0 10-2 14-5 5-4 7-10 7-16 0-9 2-22 14-33 6-5 12-7 18-7 8 0 15 5 21 10 10 11 6 21-5 45-13 26-32 61 3 101 15 17 36 26 58 26 9 0 18-2 27-5l7 7c5 5 12 9 19 9 5 0 10-2 14-5 9-8 9-23 0-34l-7-7c7-13 10-28 10-38 0-13-9-25-22-27-1 0-2-0-4-0-5 0-10 2-14 5-4 4-7 10-7 15 0 10-3 18-10 24-5 4-10 7-16 7-6 0-13-3-18-9-10-11-6-21 5-45 13-26 32-61-3-101-16-18-38-29-60-29-10 0-19 2-29 6l-7-7c-5-4-12-7-19-7zM427 148l-38 61c-42 64-153 67-251 5-97-61-142-164-100-230l37-59c41-65 153-68 251-6 98 61 143 164 101 229zM38-15a208 140 32 1 1 351 223 208 140 32 1 1-351-223ZM174 18c-12 0-23 4-34 11l-5-2c-3-2-7-3-12-3-7 0-13 3-17 9-2 4-3 9-2 15s5 10 10 14l4 2c-4 16-1 31 0 39 2 9 12 15 22 15h1c6-0 12-3 15-9 2-4 3-10 2-15-2-8-1-16 2-23 3-5 7-8 13-8 3 0 7 1 11 3 7 5 7 10 3 30-4 21-11 53 24 76 10 6 22 10 34 10 12 0 23-3 34-10l5 2c3 2 7 3 12 3 7 0 13-3 17-9 2-5 3-10 2-16-1-5-5-9-10-12l-5-2c2-11 0-21-0-29-2-10-12-17-22-17h-2c-6 0-11 3-15 8-2 4-3 10-2 15 1 6 0 12-2 17s-7 7-12 7c-2 0-6-0-9-2-7-5-7-10-3-30 4-21 11-53-24-76-11-7-24-12-37-12zM857-3l76 42c80 45 92 180 24 300-67 121-187 183-268 137l-74-41c-81-45-92-180-25-301 66-121 186-183 267-137zM664 177a168 250 29 1 1 294 163 168 250 29 1 1-294-163ZM881 118c-8 0-17 5-21 13l-4 7c-4-0-7-0-12-0-7 0-15 1-24 3-12 3-20 17-18 29 1 7 5 13 10 16 2 1 6 2 10 2 2 0 5-0 7-1 3-1 7-1 10-1 5 0 9 1 13 3 6 3 10 7 11 13 0 5 0 10-2 15-4 7-9 10-19 10-5 0-13-0-21-2-8-1-18-2-28-2-27 0-47 12-62 38-17 31-14 63 6 86l-4 7c-6 12-2 27 7 33 2 1 6 2 10 2 8 0 17-5 21-13l3-7c5 1 12 2 18 2 13 0 23-2 30-5 10-4 18-15 16-28-0-7-5-13-11-17-2-1-6-2-10-2-2 0-5 0-7 1-4 1-9 2-13 2-6 0-12-1-18-5-13-7-17-19-9-34 4-7 9-10 19-10 5 0 13 0 21 2 8 1 18 2 28 2 27 0 47-12 62-38 15-28 12-61-7-82l4-7c6-12 2-27-7-33-2-1-5-2-9-2z"  horiz-adv-x="1024" />

    
    <glyph glyph-name="Currecny_up" unicode="&#60312;" d="M678 435V668l-62 0c-9 0-15 11-9 19L747 887c7 10 23 10 31 0L918 688c5-8 0-19-10-19h-48v-426M482 255m-378 0a378 378 0 1 1 756 0 378 378 0 1 1-756 0ZM482 255m-280 0a280 280 0 1 1 560 0 280 280 0 1 1-560 0ZM477 58c-14 0-25 11-25 25v21c-17 1-35 5-50 13-12 5-19 20-14 34 3 11 14 18 25 18 3 0 7-0 11-2 10-4 25-10 46-10 25 0 43 13 43 33 0 13-5 28-44 44-43 17-82 39-82 89 0 40 26 72 69 83v23c0 14 11 25 25 25s25-11 25-25v-20c14-1 26-4 38-9 13-5 20-20 14-34-3-10-14-17-25-17-3 0-7 0-10 2-11 5-24 7-38 7-27 0-37-14-37-28 0-14 7-24 49-41 36-14 77-38 77-94 0-42-28-76-71-86v-24c-0-14-11-25-26-25z"  horiz-adv-x="1024" />

    
    <glyph glyph-name="Coins" unicode="&#60313;" d="M1224 766v-650c-13-121-502-159-720-72-29 11-71 33-80 63-0 1-1 5-1 9V766c0 39 49 64 85 78 17 6 55 19 60 19 234 64 656 14 656-97zM1224 766v-650c0-114-467-153-662-91-75 19-129 47-139 82-0 1-1 5-1 9V766c0 39 49 64 85 78 249 93 717 39 717-78zM768-2c-180 7-343 51-347 119V608c336 43 553-346 347-611zM1224 642v-56c-157-109-646-109-803 0v56c25-44 173-96 402-96 227 0 375 52 401 96zM1224 503v-56c-157-108-645-109-803 0v56c24-44 173-96 402-96 227 0 375 52 401 96zM1224 365v-56c-158-109-647-108-803-0v57c25-44 175-96 402-96 227 0 375 53 401 96zM1224 228v-57c-155-108-645-108-803 0v56c25-44 173-96 402-96 231 0 376 54 401 97zM420 769a402 123 0 1 1 804 0 402 123 0 1 1-804 0ZM387 254m-380 0a380 380 0 1 1 760 0 380 380 0 1 1-760 0ZM61 248c-0 38 4 75 17 111 9 25 48 12 39-13-10-31-15-64-14-97 0-11-9-20-20-20-11-0-20 9-20 19zM142 51c-6 0-12 2-16 8-23 31-40 67-51 105-7 26 32 37 39 11 9-33 24-64 44-92 6-9 4-22-4-29-3-3-7-4-12-4zM203-8c-4 0-9 1-12 4-6 4-14 10-20 16-8 7-9 20-1 29 7 8 20 9 29 1 5-4 11-9 18-14 9-6 10-19 4-29-4-4-10-7-16-7zM487-12c71 26 129 82 160 151 10 24 49 8 38-16-34-79-102-143-183-173-25-9-40 29-14 39zM663 327c-24 95-99 172-195 200-26 7-14 47 11 39C588 536 674 448 703 338c6-26-33-37-39-10zM392 39c-12 0-23 10-23 23V88c-109 8-67 74-34 59 15-7 32-10 47-10 24 0 51 9 51 39 0 63-134 44-134 141 0 42 28 74 73 84V429c0 12 10 23 23 23 12 0 23-10 23-23v-24c15-0 29-4 43-9 29-12 12-59-19-46-34 14-84 11-84-24 0-55 134-38 134-143 0-43-30-79-76-89v-28c-0-13-10-24-24-24z"  horiz-adv-x="1232" />

    
    <glyph glyph-name="Currecny" unicode="&#60314;" d="M536 369m-443 0a443 443 0 1 1 887 0 443 443 0 1 1-887 0ZM536 369m-327 0a327 327 0 1 1 655 0 327 327 0 1 1-655 0ZM534 151c-15 0-29 12-29 29v22c-19 2-38 7-55 14-15 7-21 23-16 38 4 12 16 20 29 20 4 0 8-0 12-2 10-5 28-10 49-10 27 0 46 14 46 35 0 14-5 30-47 47-45 17-91 43-91 99 0 45 29 80 75 91v24c0 15 12 29 29 29 15 0 29-12 29-29v-20c15-1 28-5 41-10 15-6 22-24 17-40-4-12-15-20-29-20-4 0-7 0-12 2-12 5-26 7-41 7-29 0-39-15-39-29 0-15 7-25 53-44 40-16 85-42 85-104 0-46-31-83-79-96v-25c0-15-12-28-28-28zM355-35c0-0-3-3-3-3-45-60-123-93-198-82C68-109 10-32 8 51c-1 63 30 119 73 164l-53 45a14 14 0 0 0 5 25l281 71c10 2 21-6 20-17l-27-289c-1-11-15-17-24-10l-36 31c-7-32 24-80 78-93L340-27M661 795l8 10c45 60 123 93 198 82 85-12 143-88 145-173 1-63-30-119-73-164l53-45a14 14 0 0 0-5-25l-281-71c-10-2-21 6-20 17l27 289c1 11 15 17 24 10l36-31c8 35-26 86-89 95"  horiz-adv-x="1024" />

    
    <glyph glyph-name="Camera" unicode="&#60315;" d="M298 716H110v67c0 6 4 10 10 10h166c6 0 10-4 10-10v-67zM1312 610v-627c-4-58-53-105-112-105H115c-60 0-108 45-112 105V610c0 62 51 113 113 113H1200c60-0 112-51 112-113zM464 437H1v-454h1310V437h-847zM1153 535h-140c-15 0-27 12-27 27v45c0 15 12 27 27 27h140c15 0 27-12 27-27v-45c0-15-12-27-27-27zM1153 535h-140c-15 0-27 12-27 27v45c0 15 12 27 27 27h140c15 0 27-12 27-27v-45c0-15-12-27-27-27zM657 280m-314 0a314 314 0 1 1 628 0 314 314 0 1 1-628 0ZM657 280m-203 0a203 203 0 1 1 406 0 203 203 0 1 1-406 0ZM792 888H521c-30 0-57-20-65-50l-30-113h461L858 837C850 867 823 888 792 888zM572 346m-35 0a35 35 0 1 1 70 0 35 35 0 1 1-70 0Z"  horiz-adv-x="1315" />

    
    <glyph glyph-name="Delivery_3" unicode="&#60316;" d="M548-17c-16 0-30 11-34 27L315 818H243c-20 0-36 16-36 36S223 891 243 891h99c17 0 30-11 34-27l196-801 583 134c19 4 39-7 43-26 4-19-7-39-26-43l-618-143c-4-1-6-1-8-1zM546 19m-142 0a142 142 0 1 1 284 0 142 142 0 1 1-284 0ZM546 19m-71 0a71 71 0 1 1 143 0 71 71 0 1 1-143 0ZM246 643H24c-12 0-21 9-21 21 0 12 9 21 21 21h221c12 0 21-9 21-21 0-12-9-21-21-21zM268 518H75c-12 0-21 9-21 21 0 12 9 21 21 21H268c12 0 21-9 21-21 0-12-9-21-21-21zM303 398H217c-12 0-21 9-21 21 0 12 9 21 21 21h85c12 0 21-9 21-21 0-11-9-21-21-21zM1082 266L694 180c-19-4-39 8-43 27L563 596c-4 19 8 39 27 43l388 86c19 4 39-8 43-27L1110 310c4-19-7-39-27-43zM872 645l21-94-150-34-33 149 149 34M872 645l21-94-150-34-33 149 149 34"  horiz-adv-x="1210" />

    
    <glyph glyph-name="Deliver_by_Air" unicode="&#60317;" d="M1475-126H287c0 275 182 490 414 565 96 31 201 38 306 15 46-10 91-26 135-48a597 597 0 0 0 321-420c7-36 11-73 11-111zM1008-104c-5-7-10-14-14-22H734c-4 30-5 61-4 91 6 121-46 139-116 225-59 74-47 89 78 236l9 11c96 31 201 38 306 15l27-7c38-10 74-24 108-41 0-76 8-168 38-237 48-103-108-184-172-272zM444 561c-236-150-379-407-380-687h-60c1 301 153 577 409 737 14 9 33 5 41-9 8-14 4-32-10-41zM801 718l61 170L913 892c33 2 62-22 66-54l6-102M974 581l253 21c27 2 50 18 61 43l17 35-100 45c-39 18-82 25-125 20l-433-43L572 765c-22 18-52 27-80 23L542 614c11-40 49-66 90-62l163 14M789 630l25-229 55 4c30 3 56 23 66 52l60 189M1475-126h-171c30 100 72 104 161 111 6-36 10-73 10-111z"  horiz-adv-x="1475" />

    
    <glyph glyph-name="Credit_Cards" unicode="&#60318;" d="M1107 823v-588c0-35-28-64-64-64H70c-35 0-64 28-64 64V823c0 35 28 64 64 64h973c35 0 64-29 64-64zM1107 611v-378c0-35-28-64-64-64H226v378c0 35 28 64 64 64h816zM1315-126H342c-35 0-64 28-64 64V526c0 35 28 64 64 64h973c35 0 64-28 64-64v-588c0-35-28-64-64-64zM558 314H413c-11 0-22 10-22 22 0 11 10 22 22 22h144c11 0 22-10 22-22 0-11-9-22-22-22zM791 314H646c-11 0-22 10-22 22 0 11 10 22 22 22h144c11 0 22-10 22-22 0-11-10-22-22-22zM1024 314H879c-11 0-22 10-22 22 0 11 10 22 22 22H1024c11 0 22-10 22-22 0-11-10-22-22-22zM1256 314h-144c-11 0-22 10-22 22 0 11 10 22 22 22h144c11 0 22-10 22-22 0-11-9-22-22-22zM1204 38m-84 0a84 84 0 1 1 169 0 84 84 0 1 1-169 0ZM1092 38m-84 0a84 84 0 1 1 169 0 84 84 0 1 1-169 0ZM5 767h1102v-137H5z"  horiz-adv-x="1383" />

    
    <glyph glyph-name="Cup" unicode="&#60319;" d="M840 17c-208 0-265 159-265 297l-32 19L541 358l-21-12-21 12-0-24-32-19C465 177 408 17 199 17c-0 0 0-141 0-141h640s0 141 0 141zM840-124H199s-0 129 0 140v0c126 0 196 58 233 135 23 50 32 107 32 161l32 19 0 24 21-12L541 358l0-24 32-19c0-53 8-111 31-160 36-76 106-136 233-136v-0c0-10 0-140 0-140zM840-124H199s-0 129 0 140h640c0-10 0-140 0-140zM606 153c-27-10-57-16-87-16-29 0-58 5-84 15 23 50 32 107 32 161l32 19 0 24 21-12 21 12 0-24 32-19c-0-53 7-111 31-160zM294 442c-55 0-103 19-142 58C39 616 50 809 50 819c0 14 12 26 26 26h204c15 0 26-12 26-26 0-15-12-26-26-26H104C105 728 114 618 191 540c29-29 65-43 109-42 15 0 27-11 28-26 0-15-11-27-26-28-2-0-5-0-7-0zM726 442h-7c-15 0-26 13-26 28 0 15 13 26 28 26 44-1 79 12 109 42 76 78 86 188 86 252H739c-15 0-26 12-26 26 0 15 12 26 26 26h204c14 0 26-11 26-26 0-10 10-203-101-318-38-37-86-58-142-58zM294 442c-55 0-103 19-142 58C39 616 50 809 50 819c0 14 12 26 26 26h204c15 0 26-12 26-26 0-15-12-26-26-26H104C105 728 114 618 191 540c29-29 65-43 109-42 15 0 27-11 28-26 0-15-11-27-26-28-2-0-5-0-7-0zM726 442h-7c-15 0-26 13-26 28 0 15 13 26 28 26 44-1 79 12 109 42 76 78 86 188 86 252H739c-15 0-26 12-26 26 0 15 12 26 26 26h204c14 0 26-11 26-26 0-10 10-203-101-318-38-37-86-58-142-58zM669-74H368c-10 0-18 7-18 18s7 18 18 18h301c10 0 18-7 18-18s-7-18-18-18zM789 889v-393c0-145-114-264-257-272h-13c-63 0-122 21-168 58-63 50-103 127-103 214V889h543zM544 222h6H544zM789 854v-359c0-145-114-264-257-272h-13c-63 0-122 21-168 58-23 29 3 74 42 66 16-3 34-5 51-5C585 340 700 460 700 601V765c-0 49 39 89 88 89z"  horiz-adv-x="1024" />

    
    <glyph glyph-name="Delivery" unicode="&#60320;" d="M14-47c-5 0-10 4-10 10l35 91c0 5 4 10 10 10h1280c5 0 10-4 10-10l-45-91c0-5-4-10-10-10H14zM1380 317c0-1-0-3-0-5l-70-248-356-0 87 511c1 12 13 21 25 21h197c25 0 47-15 55-40l11-35 47-151c5-15 6-33 2-50zM1111-33m-94 0a94 94 0 1 1 189 0 94 94 0 1 1-189 0ZM206 624l5 34c1 13 13 22 27 22h747c8 0 15-3 20-9 4-6 7-14 5-22L904 80c-2-13-14-21-26-21H143c-8 0-15 3-20 9-4 6-7 14-5 21l19 114L206 624zM334-33m-94 0a94 94 0 1 1 189 0 94 94 0 1 1-189 0ZM334-33m-45 0a45 45 0 1 1 90 0 45 45 0 1 1-90 0ZM1111-33m-45 0a45 45 0 1 1 90 0 45 45 0 1 1-90 0ZM1380 317h-264c-11 0-19 10-18 21l21 165c0 9 9 15 18 15h192l47-151c5-16 6-34 2-51zM1156 222h-62c-8 0-15 6-15 15 0 8 6 15 15 15h62c8 0 15-6 15-15 0-8-6-15-15-15zM589 656m-238 0a238 238 0 1 1 477 0 238 238 0 1 1-477 0ZM588 613m-259 0a259 259 0 1 1 518 0 259 259 0 1 1-518 0ZM589 656m-238 0a238 238 0 1 1 477 0 238 238 0 1 1-477 0ZM643 461c-6 0-12 3-14 10-1 7 1 15 10 18 61 17 108 68 120 131 1 8 9 13 17 11 8-1 13-9 11-17-15-73-69-132-141-154h-3zM777 641h-32c-8 0-15 6-15 15 0 8 6 15 15 15h16C754 755 687 822 604 829v-19c0-8-6-15-15-15-8 0-15 6-15 15V845c0 8 6 15 15 15 111 0 203-91 203-203 0-8-6-15-15-15zM405 686h-3c-8 1-13 10-11 17 17 75 77 133 153 150 8 1 15-2 17-11 1-8-2-15-11-17-63-14-115-64-130-128-0-5-6-10-14-10zM490 574c-5 0-10 2-13 7-3 7-1 15 5 20l93 52v91c0 8 6 15 15 15 8 0 15-6 15-15v-99c0-5-2-10-7-13L497 576c-2-0-4-1-7-1zM589 452c-111 0-203 91-203 203 0 8 6 15 15 15H432c8 0 15-6 15-15 0-8-6-15-15-15h-15c7-83 74-151 157-157V501c0 8 6 15 15 15 8 0 15-6 15-15v-33c-0-8-7-15-15-15z"  horiz-adv-x="1390" />

    
    <glyph glyph-name="Database" unicode="&#60321;" d="M1236 632v-474c0-72-137-132-308-132-124 0-231 31-279 76-18 16-28 35-28 55V632C620 705 758 764 929 764c169 0 307-59 307-132zM621 635a307 128 0 1 1 614 0 307 128 0 1 1-614 0ZM1236 477v-30C1197 389 1075 348 928 348c-146 0-269 41-308 98v31c10-65 146-117 308-117 162 0 297 51 308 116zM1236 311v-30C1197 223 1075 182 928 182c-146 0-269 41-308 98v31c10-65 146-117 308-117 162 0 297 51 308 116zM853 707v-649c0-99-189-181-423-181-170 0-317 42-384 105-24 23-38 48-38 75V707c0 99 189 181 423 181 233-0 423-81 423-181zM8 711a421 175 0 1 1 843 0 421 175 0 1 1-843 0ZM853 493v-42c-53-78-221-134-423-134-200 0-369 56-423 134v42c14-89 201-161 423-161 222 0 407 71 423 160zM853 266v-42c-53-78-221-134-423-134-200 0-369 56-423 134v42c14-89 201-161 423-161 222 0 407 71 423 160zM51 504a28 24 90 1 1 49 0 28 24 90 1 1-49 0ZM130 468a28 24 90 1 1 49 0 28 24 90 1 1-49 0ZM51 279a28 24 90 1 1 49 0 28 24 90 1 1-49 0ZM130 243a28 24 90 1 1 49 0 28 24 90 1 1-49 0ZM51 60a28 24 90 1 1 49 0 28 24 90 1 1-49 0ZM130 24a28 24 90 1 1 49 0 28 24 90 1 1-49 0Z"  horiz-adv-x="1238" />

    
    <glyph glyph-name="Delivery_2" unicode="&#60322;" d="M919 323v-261c0-21-17-38-38-38H35c-16 0-28 13-28 28V258v8c4 36 34 64 72 64H194V783c0 25 20 47 47 47h326c16 0 31-8 39-22l294-431c10-16 16-34 16-53zM919 323v-57H8c4 36 34 64 72 64H194V783c0 25 20 47 47 47h326c16 0 31-8 39-22l294-431c10-16 16-34 16-53zM747 14m-142 0a142 142 0 1 1 284 0 142 142 0 1 1-284 0ZM181 14m-142 0a142 142 0 1 1 284 0 142 142 0 1 1-284 0ZM181 14m-67 0a67 67 0 1 1 135 0 67 67 0 1 1-135 0ZM747 14m-67 0a67 67 0 1 1 135 0 67 67 0 1 1-135 0ZM676 528L548 717c-7 11-20 18-33 18H333c-22 0-40-18-40-40v-312c0-23 18-41 41-40l415 7c21 0 33 23 21 41l-95 137zM1500-3H999c-16 0-29 13-29 29v839C969 882 983 896 999 896c16 0 29-13 29-29v-811h471c16 0 29-13 29-29 0-15-13-28-29-28zM1427 128h-314c-14 0-25 11-25 25V374c0 14 11 25 25 25h314c14 0 25-11 25-25v-221c1-14-11-25-25-25zM1427 495h-314c-14 0-25 11-25 25V742c0 14 11 25 25 25h314c14 0 25-11 25-25v-221c1-13-11-25-25-25zM1234 768h62v-93h-62zM1236 400h62v-93h-62z"  horiz-adv-x="1536" />

    
    </font>
</defs>
</svg>
